<?xml version="1.0" standalone="no"?>
<!DOCTYPE svg PUBLIC "-//W3C//DTD SVG 1.1//EN" "http://www.w3.org/Graphics/SVG/1.1/DTD/svg11.dtd">
<svg width="100%" height="100%" viewBox="0 0 16 16" version="1.1" xmlns="http://www.w3.org/2000/svg" xmlns:xlink="http://www.w3.org/1999/xlink" xml:space="preserve" style="fill-rule:evenodd;clip-rule:evenodd;stroke-miterlimit:1.41421;">
    <g transform="matrix(0.0529801,-4.31408e-32,-9.86076e-32,0.0879121,0,0)">
        <g id="Layer2">
            <rect x="0" y="0" width="302" height="182" style="fill:rgb(44,156,145);"/>
        </g>
    </g>
    <g transform="matrix(0.254051,0,0,0.254051,-1.79714,-2.16204)">
        <g id="Layer1">
            <g id="thali_logo_by_Airgidfaolchu (stroke)">
                <g id="dish" transform="matrix(0.0580798,0,0,0.0580798,9.55279,10.9311)">
                    <circle cx="499.5" cy="500.5" r="491.8" style="fill:none;stroke-width:18.86px;stroke:rgb(64,224,208);"/>
                </g>
                <g transform="matrix(0.969993,0,0,0.969993,1.15716,1.20549)">
                    <circle cx="38.564" cy="40.174" r="16.988" style="fill:rgb(235,235,235);"/>
                </g>
                <g transform="matrix(0.0580798,0,0,0.0580798,9.55279,10.9311)">
                    <path d="M500,450.8C498.9,450.8 497.8,450.2 497.3,449.1L394.4,243.3C394,242.5 394,241.5 394.4,240.6L497.3,34.9C497.8,33.9 498.8,33.2 500,33.2C501.1,33.2 502.2,33.8 502.7,34.9L605.6,240.7C606,241.5 606,242.5 605.6,243.4L502.7,449.1C502.2,450.1 501.1,450.8 500,450.8Z" style="fill:rgb(44,156,145);fill-rule:nonzero;stroke-width:12.57px;stroke:rgb(64,224,208);"/>
                </g>
                <g transform="matrix(0.0580798,0,0,0.0580798,9.55279,10.9311)">
                    <path d="M602.9,242L500,447.8L397.1,242L500,36.2L602.9,242Z" style="fill:rgb(44,156,145);fill-rule:nonzero;stroke-width:12.57px;stroke:rgb(64,224,208);"/>
                </g>
                <g transform="matrix(0.0580798,0,0,0.0580798,9.55279,10.9311)">
                    <path d="M500,973.8C498.9,973.8 497.8,973.2 497.3,972.1L394.4,766.3C394,765.5 394,764.5 394.4,763.6L497.3,557.8C497.8,556.8 498.8,556.1 500,556.1C501.1,556.1 502.2,556.7 502.7,557.8L605.6,763.6C606,764.4 606,765.4 605.6,766.3L502.7,972.1C502.2,973.1 501.1,973.8 500,973.8Z" style="fill:rgb(44,156,145);fill-rule:nonzero;stroke-width:12.57px;stroke:rgb(64,224,208);"/>
                </g>
                <g transform="matrix(0.0580798,0,0,0.0580798,9.55279,10.9311)">
                    <path d="M397.1,765L500,559.2L602.9,765L500,970.8L397.1,765Z" style="fill:rgb(44,156,145);fill-rule:nonzero;stroke-width:12.57px;stroke:rgb(64,224,208);"/>
                </g>
                <g transform="matrix(0.0580798,0,0,0.0580798,9.55279,10.9311)">
                    <path d="M447.3,503.5C447.3,504.6 446.7,505.7 445.6,506.2L239.8,609.1C239,609.5 238,609.5 237.1,609.1L31.4,506.2C30.4,505.7 29.7,504.7 29.7,503.5C29.7,502.4 30.3,501.3 31.4,500.8L237.2,397.9C238,397.5 239,397.5 239.9,397.9L445.7,500.8C446.6,501.3 447.3,502.4 447.3,503.5Z" style="fill:rgb(44,156,145);fill-rule:nonzero;stroke-width:12.57px;stroke:rgb(64,224,208);"/>
                </g>
                <g transform="matrix(0.0580798,0,0,0.0580798,9.55279,10.9311)">
                    <path d="M238.5,400.6L444.3,503.5L238.5,606.4L32.7,503.5L238.5,400.6Z" style="fill:rgb(44,156,145);fill-rule:nonzero;stroke-width:12.57px;stroke:rgb(64,224,208);"/>
                </g>
                <g transform="matrix(0.0580798,0,0,0.0580798,9.55279,10.9311)">
                    <path d="M970.3,503.5C970.3,504.6 969.7,505.7 968.6,506.2L762.8,609.1C762,609.5 761,609.5 760.1,609.1L554.4,506.2C553.4,505.7 552.7,504.7 552.7,503.5C552.7,502.3 553.3,501.3 554.4,500.8L760.2,397.9C761,397.5 762,397.5 762.9,397.9L968.7,500.8C969.6,501.3 970.3,502.4 970.3,503.5Z" style="fill:rgb(44,156,145);fill-rule:nonzero;stroke-width:12.57px;stroke:rgb(64,224,208);"/>
                </g>
                <g transform="matrix(0.0580798,0,0,0.0580798,9.55279,10.9311)">
                    <path d="M761.5,606.4L555.7,503.5L761.5,400.6L967.3,503.5L761.5,606.4Z" style="fill:rgb(44,156,145);fill-rule:nonzero;stroke-width:12.57px;stroke:rgb(64,224,208);"/>
                </g>
                <g transform="matrix(0.0580798,0,0,0.0580798,9.55279,10.9311)">
                    <path d="M537.3,466.2C536.5,465.4 536.2,464.2 536.6,463.1L609.3,244.9C609.6,244 610.3,243.3 611.2,243L829.4,170.3C830.5,169.9 831.7,170.2 832.5,171C833.3,171.8 833.6,173 833.2,174.1L760.4,392.3C760.1,393.2 759.4,393.9 758.5,394.2L540.3,467C539.3,467.3 538.1,467 537.3,466.2Z" style="fill:rgb(44,156,145);fill-rule:nonzero;stroke-width:12.57px;stroke:rgb(64,224,208);"/>
                </g>
                <g transform="matrix(0.0580798,0,0,0.0580798,9.55279,10.9311)">
                    <path d="M757.7,391.3L539.4,464.1L612.2,245.8L830.4,173.1L757.7,391.3Z" style="fill:rgb(44,156,145);fill-rule:nonzero;stroke-width:12.57px;stroke:rgb(64,224,208);"/>
                </g>
                <g transform="matrix(0.0580798,0,0,0.0580798,9.55279,10.9311)">
                    <path d="M167.5,836C166.7,835.2 166.4,834 166.8,832.9L239.5,614.7C239.8,613.8 240.5,613.1 241.4,612.8L459.6,540C460.7,539.6 461.9,539.9 462.7,540.7C463.5,541.5 463.8,542.7 463.4,543.8L390.7,762C390.4,762.9 389.7,763.6 388.8,763.9L170.6,836.6C169.5,837.1 168.3,836.8 167.5,836Z" style="fill:rgb(44,156,145);fill-rule:nonzero;stroke-width:12.57px;stroke:rgb(64,224,208);"/>
                </g>
                <g transform="matrix(0.0580798,0,0,0.0580798,9.55279,10.9311)">
                    <path d="M242.3,615.7L460.6,542.9L387.8,761.2L169.6,833.9L242.3,615.7Z" style="fill:rgb(44,156,145);fill-rule:nonzero;stroke-width:12.57px;stroke:rgb(64,224,208);"/>
                </g>
                <g transform="matrix(0.0580798,0,0,0.0580798,9.55279,10.9311)">
                    <path d="M462.7,466.2C461.9,467 460.7,467.3 459.6,466.9L241.4,394.2C240.5,393.9 239.8,393.2 239.5,392.3L166.7,174C166.3,172.9 166.6,171.7 167.4,170.9C168.2,170.1 169.4,169.8 170.5,170.2L388.8,243C389.7,243.3 390.4,244 390.7,244.9L463.5,463.1C463.8,464.2 463.5,465.4 462.7,466.2Z" style="fill:rgb(44,156,145);fill-rule:nonzero;stroke-width:12.57px;stroke:rgb(64,224,208);"/>
                </g>
                <g transform="matrix(0.0580798,0,0,0.0580798,9.55279,10.9311)">
                    <path d="M387.8,245.8L460.6,464.1L242.3,391.3L169.6,173.1L387.8,245.8Z" style="fill:rgb(44,156,145);fill-rule:nonzero;stroke-width:12.57px;stroke:rgb(64,224,208);"/>
                </g>
                <g transform="matrix(0.0580798,0,0,0.0580798,9.55279,10.9311)">
                    <path d="M832.5,836C831.7,836.8 830.5,837.1 829.4,836.7L611.2,764C610.3,763.7 609.6,763 609.3,762.1L536.5,543.9C536.1,542.8 536.4,541.6 537.2,540.8C538,540 539.2,539.7 540.3,540.1L758.5,612.8C759.4,613.1 760.1,613.8 760.4,614.7L833.3,833C833.6,834 833.3,835.2 832.5,836Z" style="fill:rgb(44,156,145);fill-rule:nonzero;stroke-width:12.57px;stroke:rgb(64,224,208);"/>
                </g>
                <g transform="matrix(0.0580798,0,0,0.0580798,9.55279,10.9311)">
                    <path d="M612.2,761.2L539.4,542.9L757.7,615.7L830.4,833.9L612.2,761.2Z" style="fill:rgb(44,156,145);fill-rule:nonzero;stroke-width:12.57px;stroke:rgb(64,224,208);"/>
                </g>
            </g>
        </g>
    </g>
</svg>
