<?xml version="1.0" standalone="no"?>
<!DOCTYPE svg PUBLIC "-//W3C//DTD SVG 1.1//EN" "http://www.w3.org/Graphics/SVG/1.1/DTD/svg11.dtd">
<svg width="100%" height="100%" viewBox="0 0 1024 1024" version="1.1" xmlns="http://www.w3.org/2000/svg" xmlns:xlink="http://www.w3.org/1999/xlink" xml:space="preserve" style="fill-rule:evenodd;clip-rule:evenodd;stroke-miterlimit:1.41421;">
    <g transform="matrix(3.39073,0,0,5.62637,0,-5.68434e-14)">
        <rect x="0" y="0" width="302" height="182" style="fill:rgb(44,156,145);"/>
    </g>
    <g transform="matrix(5.1995,0,0,5.1995,24.3309,304.02)">
        <g transform="matrix(5.84082,0,0,5.84082,-351.327,-176.861)">
            <path d="M73.668,35.403L72.795,35.403C72.716,35.403 72.676,35.368 72.676,35.297L72.676,35.138C72.676,35.068 72.716,35.033 72.795,35.033L73.668,35.033C73.747,35.033 73.787,34.997 73.787,34.927L73.787,33.895C73.787,33.816 73.822,33.776 73.893,33.776L74.078,33.776C74.148,33.776 74.184,33.816 74.184,33.895L74.184,34.927C74.184,34.997 74.223,35.033 74.303,35.033L76.009,35.033C76.088,35.033 76.128,35.068 76.128,35.138L76.128,35.297C76.128,35.368 76.088,35.403 76.009,35.403L74.303,35.403C74.223,35.403 74.184,35.438 74.184,35.509L74.184,40.005C74.184,40.445 74.314,40.789 74.574,41.036C74.834,41.283 75.189,41.406 75.638,41.406L76.141,41.406C76.22,41.406 76.26,41.442 76.26,41.512L76.26,41.671C76.26,41.741 76.22,41.777 76.141,41.777L75.638,41.777C75.092,41.777 74.647,41.618 74.303,41.3C73.959,40.983 73.787,40.556 73.787,40.018L73.787,35.509C73.787,35.438 73.747,35.403 73.668,35.403Z" style="fill:white;fill-rule:nonzero;"/>
            <path d="M77.278,41.777L77.093,41.777C77.022,41.777 76.987,41.737 76.987,41.658L76.987,32.6C76.987,32.52 77.022,32.481 77.093,32.481L77.278,32.481C77.348,32.481 77.384,32.52 77.384,32.6L77.384,35.72L77.437,35.72C77.683,35.262 78.151,35.033 78.838,35.033L79.817,35.033C80.355,35.033 80.784,35.196 81.106,35.522C81.428,35.848 81.589,36.284 81.589,36.831L81.589,41.658C81.589,41.737 81.553,41.777 81.483,41.777L81.298,41.777C81.227,41.777 81.192,41.737 81.192,41.658L81.192,36.844C81.192,36.395 81.073,36.042 80.835,35.786C80.597,35.531 80.258,35.403 79.817,35.403L78.865,35.403C78.424,35.403 78.067,35.522 77.794,35.76C77.52,35.998 77.384,36.337 77.384,36.778L77.384,41.658C77.384,41.737 77.348,41.777 77.278,41.777Z" style="fill:white;fill-rule:nonzero;"/>
            <path d="M85.331,41.777L84.352,41.777C83.815,41.777 83.385,41.613 83.063,41.287C82.741,40.961 82.58,40.525 82.58,39.978L82.58,36.831C82.58,36.284 82.741,35.848 83.063,35.522C83.385,35.196 83.815,35.033 84.352,35.033L87.076,35.033C87.147,35.033 87.182,35.072 87.182,35.152L87.182,41.658C87.182,41.737 87.147,41.777 87.076,41.777L86.891,41.777C86.821,41.777 86.785,41.737 86.785,41.658L86.785,41.089L86.733,41.089C86.486,41.547 86.018,41.777 85.331,41.777ZM86.785,40.031L86.785,35.509C86.785,35.438 86.746,35.403 86.666,35.403L84.352,35.403C83.912,35.403 83.572,35.531 83.334,35.786C83.096,36.042 82.977,36.395 82.977,36.844L82.977,39.965C82.977,40.415 83.096,40.767 83.334,41.023C83.572,41.278 83.912,41.406 84.352,41.406L85.304,41.406C85.745,41.406 86.102,41.287 86.376,41.049C86.649,40.811 86.785,40.472 86.785,40.031Z" style="fill:white;fill-rule:nonzero;"/>
            <path d="M88.729,41.777L88.544,41.777C88.474,41.777 88.438,41.737 88.438,41.658L88.438,32.6C88.438,32.52 88.474,32.481 88.544,32.481L88.729,32.481C88.8,32.481 88.835,32.52 88.835,32.6L88.835,41.658C88.835,41.737 88.8,41.777 88.729,41.777Z" style="fill:white;fill-rule:nonzero;"/>
            <path d="M90.157,33.935L90.157,32.626C90.157,32.547 90.193,32.507 90.263,32.507L90.448,32.507C90.519,32.507 90.554,32.547 90.554,32.626L90.554,33.935C90.554,34.015 90.519,34.054 90.448,34.054L90.263,34.054C90.193,34.054 90.157,34.015 90.157,33.935ZM90.157,41.658L90.157,35.152C90.157,35.072 90.193,35.033 90.263,35.033L90.448,35.033C90.519,35.033 90.554,35.072 90.554,35.152L90.554,41.658C90.554,41.737 90.519,41.777 90.448,41.777L90.263,41.777C90.193,41.777 90.157,41.737 90.157,41.658Z" style="fill:white;fill-rule:nonzero;"/>
        </g>
        <g id="thali_logo_by_Airgidfaolchu">
            <g id="dish" transform="matrix(0.0580798,0,0,0.0580798,9.55279,10.9311)">
                <path d="M501.104,4.203L502.707,4.21L504.309,4.223L505.909,4.241L507.509,4.263L509.107,4.291L510.704,4.324L512.299,4.362L513.894,4.405L515.487,4.453L517.079,4.506L518.67,4.564L520.259,4.627L521.848,4.695L523.435,4.768L525.02,4.846L526.604,4.929L528.187,5.017L529.769,5.11L531.35,5.208L532.929,5.31L534.507,5.418L536.083,5.531L537.658,5.648L539.232,5.771L540.804,5.898L542.375,6.03L543.945,6.167L545.513,6.309L547.08,6.456L548.645,6.608L550.209,6.764L551.772,6.926L553.333,7.092L554.892,7.263L556.451,7.439L558.008,7.619L559.563,7.805L561.117,7.995L562.669,8.19L564.22,8.39L565.77,8.595L567.318,8.804L568.864,9.018L570.409,9.237L571.953,9.461L573.494,9.69L575.035,9.923L576.574,10.161L578.111,10.403L579.647,10.65L581.181,10.903L582.713,11.159L584.244,11.421L585.774,11.687L587.302,11.957L588.828,12.233L590.352,12.513L591.875,12.798L593.397,13.087L594.917,13.381L596.435,13.68L597.951,13.983L599.466,14.291L600.979,14.603L602.49,14.92L604,15.242L605.508,15.568L607.014,15.899L608.519,16.234L610.022,16.574L611.523,16.918L613.023,17.267L614.52,17.621L616.017,17.979L617.511,18.341L619.003,18.708L620.494,19.08L621.983,19.456L623.47,19.837L624.955,20.222L626.439,20.611L627.921,21.005L629.401,21.404L630.879,21.806L632.355,22.214L633.83,22.625L635.303,23.042L636.773,23.462L638.242,23.887L639.709,24.317L641.174,24.75L642.638,25.189L644.099,25.631L645.559,26.078L647.016,26.529L648.472,26.985L649.926,27.445L651.378,27.909L652.828,28.378L654.276,28.851L655.722,29.328L657.166,29.81L658.608,30.296L660.048,30.786L661.486,31.281L662.922,31.78L664.356,32.283L665.789,32.79L667.219,33.301L668.647,33.817L670.073,34.337L671.497,34.862L672.919,35.39L674.339,35.923L675.757,36.46L677.173,37.001L678.586,37.547L679.998,38.096L681.408,38.65L682.815,39.208L684.22,39.77L685.624,40.336L687.025,40.907L688.424,41.481L689.821,42.06L691.216,42.643L692.608,43.23L693.999,43.821L695.387,44.416L696.773,45.015L698.157,45.618L699.538,46.226L700.918,46.837L702.295,47.453L703.671,48.072L705.043,48.696L706.414,49.324L707.782,49.955L709.148,50.591L710.513,51.231L711.874,51.875L713.233,52.523L714.591,53.174L715.946,53.83L717.298,54.49L718.649,55.154L719.996,55.821L721.342,56.493L722.685,57.169L724.027,57.848L725.365,58.532L726.701,59.219L728.035,59.91L729.367,60.606L730.696,61.305L732.023,62.008L733.348,62.715L734.67,63.426L735.989,64.141L737.307,64.859L738.622,65.582L739.934,66.308L741.244,67.038L742.552,67.772L743.857,68.51L745.16,69.251L746.46,69.997L747.758,70.746L749.053,71.499L750.346,72.256L751.636,73.016L752.924,73.781L754.21,74.549L755.492,75.321L756.773,76.096L758.051,76.876L759.326,77.659L760.599,78.446L761.869,79.237L763.137,80.031L764.402,80.829L765.664,81.631L766.924,82.436L768.181,83.245L769.436,84.058L770.688,84.874L771.938,85.694L773.185,86.518L774.429,87.346L775.671,88.177L776.91,89.011L778.146,89.849L779.38,90.691L780.611,91.537L781.839,92.386L783.065,93.239L784.288,94.095L785.509,94.955L786.726,95.818L787.941,96.685L789.153,97.556L790.363,98.43L791.57,99.308L792.774,100.189L793.975,101.073L795.173,101.962L796.369,102.853L797.562,103.749L798.752,104.647L799.94,105.549L801.125,106.455L802.306,107.364L803.485,108.277L804.662,109.193L805.835,110.112L807.005,111.035L808.173,111.962L809.338,112.891L810.5,113.825L811.659,114.761L812.816,115.701L813.969,116.645L815.12,117.592L816.267,118.542L817.412,119.495L818.554,120.452L819.693,121.412L820.829,122.376L821.962,123.343L823.092,124.313L824.219,125.287L825.343,126.264L826.465,127.244L827.583,128.228L828.698,129.214L829.811,130.204L830.92,131.198L832.027,132.195L833.13,133.194L834.23,134.198L835.328,135.204L836.422,136.214L837.513,137.227L838.601,138.243L839.687,139.262L840.769,140.285L841.848,141.311L842.924,142.339L843.997,143.372L845.066,144.407L846.133,145.446L847.197,146.487L848.257,147.532L849.315,148.58L850.369,149.631L851.42,150.685L852.468,151.743L853.513,152.803L854.554,153.867L855.593,154.933L856.628,156.003L857.661,157.076L858.69,158.152L859.715,159.231L860.738,160.313L861.757,161.399L862.773,162.487L863.786,163.578L864.796,164.672L865.802,165.77L866.806,166.87L867.805,167.973L868.802,169.08L869.795,170.189L870.786,171.302L871.772,172.417L872.756,173.535L873.736,174.657L874.713,175.781L875.687,176.908L876.657,178.038L877.624,179.171L878.588,180.307L879.548,181.446L880.505,182.588L881.458,183.733L882.409,184.88L883.355,186.031L884.299,187.184L885.239,188.341L886.175,189.5L887.109,190.662L888.038,191.827L888.965,192.994L889.888,194.165L890.807,195.339L891.723,196.515L892.636,197.694L893.545,198.876L894.451,200.06L895.353,201.248L896.252,202.438L897.147,203.631L898.038,204.827L898.927,206.025L899.811,207.226L900.693,208.431L901.57,209.637L902.444,210.847L903.315,212.059L904.182,213.274L905.045,214.491L905.905,215.712L906.761,216.935L907.614,218.16L908.463,219.389L909.309,220.62L910.15,221.854L910.989,223.09L911.823,224.329L912.654,225.571L913.482,226.815L914.306,228.062L915.126,229.312L915.942,230.564L916.755,231.818L917.564,233.076L918.369,234.336L919.171,235.598L919.969,236.863L920.763,238.131L921.554,239.401L922.341,240.674L923.124,241.949L923.903,243.227L924.679,244.507L925.451,245.79L926.219,247.076L926.984,248.364L927.744,249.654L928.501,250.947L929.254,252.242L930.003,253.54L930.749,254.84L931.49,256.143L932.228,257.448L932.962,258.756L933.692,260.066L934.418,261.378L935.141,262.693L935.859,264.011L936.574,265.33L937.285,266.652L937.992,267.977L938.695,269.304L939.394,270.633L940.09,271.965L940.781,273.299L941.468,274.635L942.152,275.974L942.831,277.315L943.507,278.658L944.179,280.004L944.846,281.352L945.51,282.702L946.17,284.054L946.826,285.409L947.478,286.766L948.125,288.126L948.769,289.487L949.409,290.851L950.044,292.218L950.676,293.586L951.304,294.957L951.928,296.33L952.547,297.705L953.163,299.082L953.774,300.462L954.382,301.843L954.985,303.227L955.584,304.613L956.179,306.001L956.77,307.392L957.357,308.785L957.94,310.179L958.519,311.576L959.093,312.975L959.664,314.376L960.23,315.78L960.792,317.185L961.35,318.592L961.904,320.002L962.453,321.414L962.999,322.827L963.54,324.243L964.077,325.661L964.61,327.081L965.138,328.503L965.663,329.927L966.183,331.353L966.698,332.781L967.21,334.211L967.717,335.644L968.22,337.078L968.719,338.514L969.214,339.952L969.704,341.392L970.19,342.834L970.672,344.278L971.149,345.724L971.622,347.172L972.091,348.622L972.555,350.074L973.015,351.528L973.471,352.984L973.922,354.441L974.369,355.901L974.811,357.362L975.25,358.825L975.683,360.291L976.113,361.758L976.538,363.227L976.958,364.697L977.375,366.17L977.786,367.645L978.194,369.121L978.597,370.599L978.995,372.079L979.389,373.561L979.778,375.044L980.163,376.53L980.544,378.017L980.92,379.506L981.292,380.997L981.659,382.489L982.021,383.984L982.379,385.48L982.733,386.977L983.082,388.477L983.426,389.978L983.766,391.481L984.101,392.986L984.432,394.492L984.758,396L985.08,397.51L985.397,399.021L985.709,400.534L986.017,402.049L986.32,403.565L986.619,405.084L986.913,406.603L987.202,408.125L987.487,409.648L987.767,411.172L988.042,412.698L988.313,414.226L988.579,415.756L988.841,417.287L989.097,418.819L989.349,420.353L989.597,421.889L989.839,423.426L990.077,424.965L990.31,426.505L990.539,428.047L990.763,429.591L990.981,431.136L991.196,432.682L991.405,434.23L991.61,435.78L991.81,437.331L992.005,438.883L992.195,440.437L992.381,441.992L992.561,443.549L992.737,445.108L992.908,446.667L993.074,448.228L993.236,449.791L993.392,451.355L993.544,452.92L993.691,454.487L993.833,456.055L993.97,457.625L994.102,459.196L994.229,460.768L994.352,462.342L994.469,463.917L994.582,465.494L994.69,467.071L994.792,468.65L994.89,470.231L994.983,471.813L995.071,473.396L995.154,474.98L995.232,476.565L995.305,478.152L995.373,479.741L995.436,481.33L995.494,482.921L995.547,484.513L995.595,486.106L995.638,487.701L995.676,489.296L995.709,490.893L995.736,492.491L995.759,494.091L995.777,495.691L995.79,497.293L995.797,498.896L995.8,500.5L995.797,502.104L995.79,503.707L995.777,505.309L995.759,506.909L995.736,508.509L995.709,510.107L995.676,511.704L995.638,513.299L995.595,514.894L995.547,516.487L995.494,518.079L995.436,519.67L995.373,521.259L995.305,522.848L995.232,524.434L995.154,526.02L995.071,527.604L994.983,529.187L994.89,530.769L994.792,532.35L994.69,533.929L994.582,535.506L994.469,537.083L994.352,538.658L994.229,540.232L994.102,541.804L993.97,543.375L993.833,544.945L993.691,546.513L993.544,548.08L993.392,549.645L993.236,551.209L993.074,552.772L992.908,554.333L992.737,555.892L992.561,557.451L992.381,559.008L992.195,560.563L992.005,562.117L991.81,563.669L991.61,565.22L991.405,566.77L991.196,568.318L990.981,569.864L990.763,571.409L990.539,572.953L990.31,574.494L990.077,576.035L989.839,577.574L989.597,579.111L989.349,580.647L989.097,582.181L988.841,583.713L988.579,585.244L988.313,586.774L988.042,588.302L987.767,589.828L987.487,591.352L987.202,592.875L986.913,594.397L986.619,595.917L986.32,597.435L986.017,598.951L985.709,600.466L985.397,601.979L985.08,603.49L984.758,605L984.432,606.508L984.101,608.014L983.766,609.519L983.426,611.022L983.082,612.523L982.733,614.023L982.379,615.52L982.021,617.016L981.659,618.511L981.292,620.003L980.92,621.494L980.544,622.983L980.163,624.47L979.778,625.955L979.389,627.439L978.995,628.921L978.597,630.401L978.194,631.879L977.786,633.355L977.375,634.83L976.958,636.303L976.538,637.773L976.113,639.242L975.683,640.709L975.25,642.175L974.811,643.638L974.369,645.099L973.922,646.559L973.471,648.016L973.015,649.472L972.555,650.926L972.091,652.378L971.622,653.828L971.149,655.276L970.672,656.722L970.19,658.166L969.704,659.608L969.214,661.048L968.719,662.486L968.22,663.922L967.717,665.356L967.21,666.789L966.698,668.219L966.183,669.647L965.663,671.073L965.138,672.497L964.61,673.919L964.077,675.339L963.54,676.757L962.999,678.173L962.453,679.586L961.904,680.998L961.35,682.408L960.792,683.815L960.23,685.221L959.664,686.624L959.093,688.025L958.519,689.424L957.94,690.821L957.357,692.216L956.77,693.608L956.179,694.999L955.584,696.387L954.985,697.773L954.382,699.157L953.774,700.538L953.163,701.918L952.547,703.295L951.928,704.67L951.304,706.044L950.676,707.414L950.044,708.782L949.409,710.148L948.769,711.512L948.125,712.874L947.477,714.234L946.826,715.591L946.17,716.946L945.51,718.298L944.846,719.648L944.179,720.996L943.507,722.342L942.831,723.686L942.152,725.026L941.468,726.365L940.781,727.701L940.09,729.035L939.394,730.367L938.695,731.696L937.992,733.023L937.285,734.348L936.574,735.67L935.859,736.989L935.141,738.307L934.418,739.622L933.692,740.934L932.962,742.244L932.228,743.552L931.49,744.857L930.749,746.16L930.003,747.46L929.254,748.758L928.501,750.053L927.744,751.346L926.984,752.636L926.219,753.924L925.451,755.21L924.679,756.492L923.903,757.773L923.124,759.051L922.341,760.326L921.554,761.599L920.763,762.869L919.969,764.137L919.171,765.402L918.369,766.664L917.564,767.924L916.755,769.182L915.942,770.436L915.126,771.688L914.306,772.938L913.482,774.185L912.654,775.429L911.823,776.671L910.989,777.91L910.15,779.146L909.309,780.38L908.463,781.611L907.614,782.84L906.761,784.065L905.905,785.288L905.045,786.508L904.182,787.726L903.315,788.941L902.444,790.153L901.57,791.363L900.693,792.57L899.811,793.774L898.927,794.975L898.038,796.173L897.147,797.369L896.251,798.562L895.353,799.752L894.451,800.94L893.545,802.125L892.636,803.307L891.723,804.485L890.807,805.661L889.888,806.835L888.965,808.005L888.038,809.173L887.109,810.338L886.175,811.5L885.239,812.659L884.299,813.816L883.355,814.969L882.409,816.12L881.458,817.267L880.505,818.412L879.548,819.554L878.588,820.693L877.624,821.829L876.657,822.962L875.687,824.092L874.713,825.219L873.736,826.343L872.756,827.465L871.772,828.583L870.786,829.698L869.795,830.811L868.802,831.92L867.805,833.027L866.806,834.13L865.802,835.23L864.796,836.327L863.786,837.422L862.773,838.513L861.757,839.602L860.738,840.687L859.715,841.769L858.69,842.848L857.661,843.924L856.628,844.997L855.593,846.066L854.554,847.133L853.513,848.197L852.468,849.257L851.42,850.315L850.369,851.369L849.315,852.42L848.257,853.468L847.197,854.513L846.133,855.555L845.066,856.593L843.997,857.628L842.924,858.661L841.848,859.69L840.769,860.715L839.687,861.738L838.601,862.757L837.513,863.773L836.422,864.786L835.328,865.796L834.23,866.802L833.13,867.805L832.027,868.805L830.92,869.802L829.811,870.796L828.698,871.786L827.583,872.772L826.465,873.756L825.343,874.736L824.219,875.713L823.092,876.687L821.962,877.657L820.829,878.624L819.693,879.588L818.554,880.548L817.412,881.505L816.267,882.458L815.12,883.408L813.969,884.355L812.816,885.299L811.659,886.239L810.5,887.175L809.338,888.109L808.173,889.038L807.005,889.965L805.835,890.888L804.662,891.807L803.485,892.723L802.306,893.636L801.124,894.545L799.94,895.451L798.753,896.353L797.562,897.252L796.369,898.147L795.173,899.039L793.975,899.927L792.774,900.811L791.57,901.692L790.363,902.57L789.153,903.444L787.941,904.315L786.726,905.182L785.509,906.045L784.288,906.905L783.065,907.761L781.839,908.614L780.611,909.463L779.38,910.309L778.146,911.15L776.91,911.989L775.671,912.823L774.429,913.655L773.185,914.482L771.938,915.305L770.688,916.126L769.436,916.942L768.182,917.755L766.924,918.564L765.664,919.369L764.402,920.171L763.137,920.969L761.869,921.764L760.599,922.554L759.326,923.341L758.051,924.124L756.773,924.903L755.492,925.679L754.21,926.451L752.924,927.219L751.636,927.984L750.346,928.744L749.053,929.501L747.758,930.254L746.46,931.003L745.16,931.749L743.857,932.49L742.552,933.228L741.244,933.962L739.934,934.692L738.622,935.419L737.307,936.141L735.989,936.86L734.67,937.574L733.348,938.285L732.023,938.992L730.696,939.695L729.367,940.394L728.035,941.09L726.702,941.781L725.365,942.468L724.026,943.152L722.685,943.831L721.342,944.507L719.996,945.179L718.648,945.846L717.298,946.51L715.946,947.17L714.591,947.826L713.234,948.477L711.874,949.125L710.512,949.769L709.148,950.409L707.782,951.044L706.414,951.676L705.043,952.304L703.671,952.928L702.295,953.547L700.918,954.163L699.539,954.774L698.157,955.382L696.773,955.985L695.387,956.584L693.998,957.179L692.608,957.77L691.216,958.357L689.821,958.94L688.424,959.519L687.025,960.093L685.624,960.664L684.221,961.23L682.815,961.792L681.408,962.35L679.998,962.904L678.586,963.453L677.173,963.999L675.757,964.54L674.339,965.077L672.919,965.61L671.497,966.138L670.073,966.663L668.647,967.183L667.219,967.698L665.789,968.21L664.356,968.718L662.922,969.22L661.486,969.719L660.048,970.214L658.608,970.704L657.166,971.19L655.721,971.672L654.275,972.149L652.828,972.622L651.378,973.091L649.926,973.555L648.472,974.015L647.016,974.471L645.559,974.922L644.099,975.369L642.638,975.811L641.174,976.25L639.709,976.683L638.242,977.113L636.773,977.538L635.303,977.958L633.83,978.375L632.355,978.786L630.879,979.194L629.401,979.597L627.921,979.995L626.439,980.389L624.956,980.778L623.47,981.163L621.983,981.544L620.494,981.92L619.003,982.291L617.511,982.659L616.016,983.021L614.521,983.379L613.023,983.733L611.523,984.082L610.022,984.426L608.519,984.766L607.014,985.101L605.508,985.432L604,985.758L602.49,986.08L600.979,986.397L599.466,986.709L597.951,987.017L596.435,987.32L594.917,987.619L593.397,987.913L591.875,988.202L590.352,988.487L588.828,988.767L587.302,989.042L585.774,989.313L584.244,989.579L582.714,989.841L581.181,990.098L579.646,990.349L578.111,990.597L576.574,990.839L575.035,991.077L573.494,991.31L571.953,991.539L570.409,991.763L568.864,991.981L567.318,992.196L565.77,992.405L564.22,992.61L562.669,992.81L561.117,993.005L559.563,993.195L558.008,993.381L556.451,993.561L554.892,993.737L553.333,993.908L551.772,994.074L550.209,994.236L548.645,994.392L547.079,994.544L545.513,994.691L543.944,994.833L542.375,994.97L540.804,995.102L539.232,995.229L537.658,995.352L536.083,995.469L534.506,995.582L532.928,995.69L531.35,995.792L529.769,995.89L528.187,995.983L526.605,996.071L525.02,996.154L523.435,996.232L521.848,996.305L520.259,996.373L518.67,996.436L517.079,996.494L515.487,996.547L513.894,996.595L512.299,996.638L510.704,996.676L509.107,996.709L507.508,996.736L505.909,996.759L504.309,996.777L502.707,996.79L501.104,996.797L499.5,996.8L497.896,996.797L496.293,996.79L494.691,996.777L493.091,996.759L491.492,996.736L489.893,996.709L488.296,996.676L486.701,996.638L485.106,996.595L483.513,996.547L481.921,996.494L480.33,996.436L478.741,996.373L477.152,996.305L475.565,996.232L473.98,996.154L472.395,996.071L470.813,995.983L469.231,995.89L467.65,995.792L466.072,995.69L464.494,995.582L462.917,995.469L461.342,995.352L459.768,995.229L458.196,995.102L456.625,994.97L455.056,994.833L453.487,994.691L451.921,994.544L450.355,994.392L448.791,994.236L447.228,994.074L445.667,993.908L444.108,993.737L442.549,993.561L440.992,993.381L439.437,993.195L437.883,993.005L436.331,992.81L434.78,992.61L433.23,992.405L431.682,992.196L430.136,991.981L428.591,991.763L427.047,991.539L425.505,991.31L423.965,991.077L422.426,990.839L420.889,990.597L419.354,990.349L417.819,990.098L416.286,989.841L414.756,989.579L413.226,989.313L411.698,989.042L410.172,988.767L408.648,988.487L407.125,988.202L405.603,987.913L404.083,987.619L402.565,987.32L401.049,987.017L399.534,986.709L398.021,986.397L396.51,986.08L395,985.758L393.492,985.432L391.985,985.101L390.481,984.766L388.978,984.426L387.477,984.082L385.977,983.733L384.479,983.379L382.984,983.021L381.489,982.659L379.997,982.291L378.506,981.92L377.017,981.544L375.53,981.163L374.044,980.778L372.561,980.389L371.079,979.995L369.599,979.597L368.121,979.194L366.645,978.786L365.17,978.375L363.697,977.958L362.227,977.538L360.758,977.113L359.291,976.683L357.826,976.25L356.362,975.811L354.901,975.369L353.441,974.922L351.984,974.471L350.528,974.015L349.074,973.555L347.622,973.091L346.172,972.622L344.725,972.149L343.279,971.672L341.834,971.19L340.392,970.704L338.952,970.214L337.514,969.719L336.078,969.22L334.644,968.718L333.212,968.21L331.781,967.698L330.353,967.183L328.927,966.663L327.503,966.138L326.081,965.61L324.661,965.077L323.243,964.54L321.827,963.999L320.414,963.453L319.002,962.904L317.593,962.35L316.185,961.792L314.779,961.23L313.376,960.664L311.975,960.093L310.576,959.519L309.179,958.94L307.784,958.357L306.392,957.77L305.002,957.179L303.613,956.584L302.227,955.985L300.843,955.382L299.461,954.774L298.082,954.163L296.705,953.547L295.329,952.928L293.957,952.304L292.586,951.676L291.218,951.044L289.851,950.409L288.488,949.769L287.126,949.125L285.766,948.477L284.409,947.826L283.054,947.17L281.702,946.51L280.352,945.846L279.004,945.179L277.658,944.507L276.314,943.831L274.974,943.152L273.635,942.468L272.299,941.781L270.965,941.09L269.633,940.394L268.304,939.695L266.977,938.992L265.652,938.285L264.33,937.574L263.01,936.86L261.693,936.141L260.378,935.419L259.066,934.692L257.756,933.962L256.448,933.228L255.143,932.49L253.84,931.749L252.54,931.003L251.242,930.254L249.947,929.501L248.654,928.744L247.364,927.984L246.076,927.219L244.79,926.451L243.508,925.679L242.227,924.903L240.949,924.124L239.674,923.341L238.401,922.554L237.131,921.764L235.863,920.969L234.598,920.171L233.336,919.369L232.076,918.564L230.818,917.755L229.564,916.942L228.312,916.126L227.062,915.305L225.815,914.482L224.571,913.655L223.329,912.823L222.09,911.989L220.854,911.15L219.62,910.309L218.389,909.463L217.161,908.614L215.935,907.761L214.712,906.905L213.491,906.045L212.274,905.182L211.059,904.315L209.847,903.444L208.637,902.57L207.43,901.692L206.226,900.811L205.025,899.927L203.827,899.039L202.631,898.147L201.438,897.252L200.247,896.353L199.06,895.451L197.876,894.545L196.694,893.636L195.515,892.723L194.338,891.807L193.165,890.888L191.995,889.965L190.827,889.038L189.662,888.109L188.5,887.175L187.341,886.239L186.184,885.299L185.031,884.355L183.88,883.408L182.733,882.458L181.588,881.505L180.446,880.548L179.307,879.588L178.171,878.624L177.038,877.657L175.908,876.687L174.781,875.713L173.657,874.736L172.535,873.756L171.417,872.772L170.302,871.786L169.189,870.796L168.08,869.802L166.973,868.805L165.87,867.805L164.77,866.802L163.672,865.796L162.578,864.786L161.487,863.773L160.399,862.757L159.313,861.738L158.231,860.715L157.152,859.69L156.076,858.66L155.003,857.628L153.934,856.593L152.867,855.555L151.803,854.513L150.743,853.468L149.685,852.42L148.631,851.369L147.58,850.315L146.532,849.257L145.487,848.197L144.446,847.133L143.407,846.066L142.372,844.997L141.339,843.924L140.31,842.848L139.285,841.769L138.262,840.687L137.243,839.602L136.227,838.513L135.214,837.422L134.204,836.327L133.198,835.23L132.194,834.13L131.195,833.027L130.198,831.92L129.205,830.811L128.214,829.698L127.228,828.583L126.244,827.465L125.264,826.343L124.287,825.219L123.313,824.092L122.343,822.962L121.376,821.829L120.412,820.693L119.452,819.554L118.495,818.412L117.542,817.267L116.591,816.12L115.645,814.969L114.701,813.816L113.761,812.659L112.825,811.5L111.891,810.338L110.962,809.173L110.035,808.005L109.112,806.835L108.193,805.661L107.277,804.485L106.364,803.306L105.455,802.125L104.549,800.94L103.647,799.752L102.749,798.562L101.853,797.369L100.962,796.173L100.073,794.975L99.189,793.774L98.308,792.57L97.43,791.363L96.556,790.153L95.685,788.941L94.818,787.726L93.955,786.508L93.095,785.288L92.239,784.065L91.386,782.839L90.537,781.611L89.691,780.38L88.85,779.146L88.011,777.91L87.177,776.671L86.346,775.429L85.518,774.185L84.694,772.938L83.874,771.688L83.058,770.436L82.245,769.182L81.436,767.924L80.631,766.664L79.829,765.402L79.031,764.136L78.237,762.869L77.446,761.599L76.659,760.326L75.876,759.051L75.097,757.773L74.321,756.492L73.549,755.21L72.781,753.924L72.016,752.636L71.256,751.346L70.499,750.053L69.746,748.758L68.997,747.46L68.251,746.16L67.51,744.857L66.772,743.552L66.038,742.244L65.308,740.934L64.582,739.622L63.859,738.307L63.14,736.989L62.426,735.67L61.715,734.348L61.008,733.023L60.305,731.696L59.606,730.367L58.911,729.035L58.219,727.701L57.532,726.365L56.848,725.026L56.169,723.686L55.493,722.342L54.821,720.996L54.154,719.648L53.49,718.298L52.83,716.945L52.174,715.591L51.523,714.234L50.875,712.874L50.231,711.512L49.591,710.149L48.955,708.782L48.324,707.414L47.696,706.043L47.072,704.67L46.453,703.295L45.837,701.918L45.226,700.538L44.618,699.157L44.015,697.773L43.416,696.387L42.821,694.999L42.23,693.608L41.643,692.216L41.06,690.821L40.481,689.424L39.907,688.025L39.336,686.624L38.77,685.22L38.208,683.815L37.65,682.408L37.096,680.998L36.547,679.586L36.001,678.173L35.46,676.757L34.923,675.339L34.39,673.919L33.862,672.497L33.337,671.073L32.817,669.647L32.302,668.219L31.79,666.789L31.283,665.356L30.779,663.922L30.281,662.486L29.786,661.048L29.296,659.608L28.81,658.166L28.328,656.722L27.851,655.276L27.378,653.828L26.909,652.378L26.445,650.926L25.985,649.472L25.529,648.016L25.078,646.559L24.631,645.099L24.189,643.638L23.75,642.174L23.317,640.709L22.887,639.242L22.462,637.773L22.042,636.303L21.625,634.83L21.214,633.355L20.806,631.879L20.403,630.401L20.005,628.921L19.611,627.439L19.222,625.956L18.837,624.47L18.456,622.983L18.08,621.494L17.708,620.003L17.341,618.511L16.979,617.016L16.621,615.52L16.267,614.023L15.918,612.523L15.574,611.022L15.234,609.519L14.899,608.014L14.568,606.508L14.242,605L13.92,603.49L13.603,601.979L13.291,600.466L12.983,598.951L12.68,597.435L12.381,595.916L12.087,594.397L11.798,592.875L11.513,591.352L11.233,589.828L10.957,588.302L10.687,586.774L10.421,585.244L10.159,583.713L9.903,582.181L9.651,580.647L9.403,579.111L9.161,577.574L8.923,576.035L8.69,574.494L8.461,572.953L8.237,571.409L8.018,569.864L7.804,568.318L7.595,566.77L7.39,565.22L7.19,563.669L6.995,562.117L6.805,560.563L6.619,559.008L6.439,557.451L6.263,555.892L6.092,554.333L5.926,552.772L5.764,551.209L5.608,549.645L5.456,548.08L5.309,546.513L5.167,544.945L5.03,543.375L4.898,541.804L4.771,540.232L4.648,538.658L4.531,537.083L4.418,535.506L4.31,533.929L4.208,532.35L4.11,530.769L4.017,529.187L3.929,527.604L3.846,526.02L3.768,524.434L3.695,522.848L3.627,521.259L3.564,519.67L3.506,518.079L3.453,516.487L3.405,514.894L3.362,513.3L3.324,511.704L3.291,510.107L3.263,508.509L3.241,506.909L3.223,505.309L3.21,503.707L3.203,502.104L3.2,500.5L3.203,498.896L3.21,497.293L3.223,495.691L3.241,494.091L3.263,492.491L3.291,490.893L3.324,489.296L3.362,487.701L3.405,486.106L3.453,484.513L3.506,482.921L3.564,481.33L3.627,479.741L3.695,478.152L3.768,476.566L3.846,474.98L3.929,473.396L4.017,471.813L4.11,470.231L4.208,468.65L4.31,467.071L4.418,465.494L4.531,463.917L4.648,462.342L4.771,460.768L4.898,459.196L5.03,457.625L5.167,456.055L5.309,454.487L5.456,452.92L5.608,451.355L5.764,449.791L5.926,448.228L6.092,446.667L6.263,445.108L6.439,443.549L6.619,441.992L6.805,440.437L6.995,438.883L7.19,437.331L7.39,435.78L7.595,434.23L7.804,432.682L8.018,431.136L8.237,429.591L8.461,428.047L8.69,426.506L8.923,424.965L9.161,423.426L9.403,421.889L9.651,420.353L9.903,418.819L10.159,417.287L10.421,415.756L10.687,414.226L10.957,412.698L11.233,411.172L11.513,409.648L11.798,408.125L12.087,406.603L12.381,405.084L12.68,403.565L12.983,402.049L13.291,400.534L13.603,399.021L13.92,397.51L14.242,396L14.568,394.492L14.899,392.986L15.234,391.481L15.574,389.978L15.918,388.477L16.267,386.977L16.621,385.479L16.979,383.984L17.341,382.489L17.708,380.997L18.08,379.506L18.456,378.017L18.837,376.53L19.222,375.044L19.611,373.561L20.005,372.079L20.403,370.599L20.806,369.121L21.214,367.645L21.625,366.17L22.042,364.698L22.462,363.227L22.887,361.758L23.317,360.291L23.75,358.825L24.189,357.362L24.631,355.901L25.078,354.441L25.529,352.984L25.985,351.528L26.445,350.074L26.909,348.622L27.378,347.172L27.851,345.724L28.328,344.278L28.81,342.834L29.296,341.392L29.786,339.952L30.281,338.514L30.779,337.078L31.283,335.644L31.79,334.211L32.302,332.781L32.817,331.353L33.337,329.927L33.862,328.503L34.39,327.081L34.923,325.661L35.46,324.243L36.001,322.827L36.547,321.414L37.096,320.002L37.65,318.592L38.208,317.185L38.77,315.78L39.336,314.376L39.907,312.975L40.481,311.576L41.06,310.179L41.643,308.785L42.23,307.392L42.821,306.002L43.416,304.613L44.015,303.227L44.618,301.843L45.226,300.461L45.837,299.082L46.453,297.705L47.072,296.33L47.696,294.957L48.324,293.586L48.955,292.218L49.591,290.851L50.231,289.487L50.875,288.126L51.523,286.766L52.174,285.409L52.83,284.054L53.49,282.702L54.154,281.352L54.821,280.004L55.493,278.658L56.169,277.315L56.848,275.974L57.532,274.635L58.219,273.299L58.91,271.965L59.606,270.633L60.305,269.304L61.008,267.977L61.715,266.652L62.426,265.33L63.14,264.011L63.859,262.693L64.582,261.378L65.308,260.066L66.038,258.756L66.772,257.448L67.51,256.143L68.251,254.84L68.997,253.54L69.746,252.242L70.499,250.947L71.256,249.654L72.016,248.364L72.781,247.076L73.549,245.79L74.321,244.508L75.097,243.227L75.876,241.949L76.659,240.674L77.446,239.401L78.237,238.131L79.031,236.863L79.829,235.598L80.631,234.336L81.436,233.076L82.245,231.818L83.058,230.564L83.874,229.312L84.694,228.062L85.518,226.815L86.346,225.571L87.177,224.329L88.011,223.09L88.85,221.854L89.691,220.62L90.537,219.389L91.386,218.161L92.239,216.935L93.095,215.712L93.955,214.491L94.818,213.274L95.685,212.059L96.556,210.847L97.43,209.637L98.308,208.431L99.189,207.226L100.073,206.025L100.962,204.827L101.853,203.631L102.749,202.438L103.647,201.248L104.549,200.06L105.455,198.876L106.364,197.694L107.277,196.515L108.193,195.338L109.112,194.165L110.035,192.994L110.962,191.827L111.891,190.662L112.825,189.5L113.761,188.341L114.701,187.184L115.645,186.031L116.591,184.88L117.542,183.733L118.495,182.588L119.452,181.446L120.412,180.307L121.376,179.171L122.343,178.038L123.313,176.908L124.287,175.781L125.264,174.657L126.244,173.535L127.228,172.417L128.214,171.302L129.204,170.189L130.198,169.08L131.195,167.973L132.194,166.87L133.198,165.77L134.204,164.672L135.214,163.578L136.227,162.487L137.243,161.399L138.262,160.313L139.285,159.231L140.311,158.152L141.339,157.076L142.372,156.003L143.407,154.934L144.446,153.867L145.487,152.803L146.532,151.743L147.58,150.685L148.631,149.631L149.685,148.58L150.743,147.532L151.803,146.487L152.867,145.445L153.934,144.407L155.003,143.372L156.076,142.339L157.152,141.311L158.231,140.285L159.313,139.262L160.399,138.243L161.487,137.227L162.578,136.214L163.672,135.204L164.77,134.198L165.87,133.194L166.973,132.195L168.08,131.198L169.189,130.204L170.302,129.214L171.417,128.228L172.535,127.244L173.657,126.264L174.781,125.287L175.908,124.313L177.038,123.343L178.171,122.376L179.307,121.412L180.446,120.452L181.588,119.495L182.733,118.542L183.88,117.592L185.031,116.645L186.184,115.701L187.341,114.761L188.5,113.825L189.662,112.891L190.827,111.962L191.995,111.035L193.165,110.112L194.338,109.193L195.515,108.277L196.694,107.364L197.876,106.455L199.06,105.549L200.248,104.647L201.438,103.749L202.631,102.853L203.827,101.962L205.025,101.073L206.226,100.189L207.43,99.308L208.637,98.43L209.847,97.556L211.059,96.685L212.274,95.818L213.491,94.955L214.712,94.095L215.935,93.239L217.161,92.386L218.389,91.537L219.62,90.692L220.854,89.85L222.09,89.011L223.329,88.177L224.571,87.346L225.815,86.518L227.062,85.694L228.312,84.874L229.564,84.058L230.819,83.245L232.076,82.436L233.336,81.631L234.598,80.829L235.863,80.031L237.131,79.237L238.401,78.446L239.674,77.659L240.949,76.876L242.227,76.096L243.508,75.321L244.79,74.549L246.076,73.781L247.364,73.016L248.654,72.256L249.947,71.499L251.242,70.746L252.54,69.997L253.84,69.251L255.143,68.51L256.448,67.772L257.756,67.038L259.066,66.308L260.378,65.582L261.693,64.859L263.01,64.141L264.33,63.426L265.652,62.715L266.977,62.008L268.304,61.305L269.633,60.606L270.965,59.91L272.299,59.219L273.635,58.532L274.973,57.848L276.315,57.169L277.658,56.493L279.003,55.821L280.352,55.154L281.702,54.49L283.054,53.83L284.409,53.174L285.766,52.523L287.126,51.875L288.487,51.231L289.851,50.591L291.218,49.955L292.586,49.324L293.957,48.696L295.329,48.072L296.705,47.453L298.082,46.837L299.462,46.226L300.843,45.618L302.227,45.015L303.613,44.416L305.001,43.821L306.392,43.23L307.784,42.643L309.179,42.06L310.576,41.481L311.975,40.907L313.376,40.336L314.779,39.77L316.185,39.208L317.593,38.65L319.002,38.096L320.414,37.547L321.827,37.001L323.243,36.46L324.661,35.923L326.081,35.39L327.503,34.862L328.927,34.337L330.353,33.817L331.781,33.301L333.212,32.79L334.644,32.283L336.078,31.78L337.514,31.281L338.952,30.786L340.392,30.296L341.834,29.81L343.278,29.328L344.724,28.851L346.172,28.378L347.622,27.909L349.074,27.445L350.528,26.985L351.984,26.529L353.441,26.078L354.901,25.631L356.362,25.189L357.826,24.75L359.291,24.317L360.758,23.887L362.227,23.462L363.697,23.042L365.17,22.625L366.645,22.214L368.121,21.806L369.599,21.404L371.079,21.005L372.561,20.611L374.045,20.222L375.53,19.837L377.017,19.456L378.506,19.08L379.997,18.708L381.489,18.341L382.983,17.979L384.48,17.621L385.977,17.267L387.477,16.918L388.978,16.574L390.481,16.234L391.985,15.899L393.492,15.568L395,15.242L396.51,14.92L398.021,14.603L399.534,14.291L401.049,13.983L402.565,13.68L404.083,13.381L405.603,13.087L407.125,12.798L408.648,12.513L410.172,12.233L411.698,11.957L413.226,11.687L414.756,11.421L416.287,11.159L417.819,10.903L419.353,10.65L420.889,10.403L422.426,10.161L423.965,9.923L425.506,9.69L427.047,9.461L428.591,9.237L430.136,9.018L431.682,8.804L433.23,8.595L434.78,8.39L436.331,8.19L437.883,7.995L439.437,7.805L440.992,7.619L442.549,7.439L444.108,7.263L445.667,7.092L447.228,6.926L448.791,6.764L450.355,6.608L451.92,6.456L453.487,6.309L455.055,6.167L456.625,6.03L458.196,5.898L459.768,5.771L461.342,5.648L462.917,5.531L464.494,5.418L466.071,5.31L467.65,5.208L469.231,5.11L470.813,5.017L472.396,4.929L473.98,4.846L475.565,4.768L477.152,4.695L478.741,4.627L480.33,4.564L481.921,4.506L483.513,4.453L485.106,4.405L486.701,4.362L488.296,4.324L489.893,4.291L491.491,4.263L493.091,4.241L494.691,4.223L496.293,4.21L497.896,4.203L499.5,4.2L501.104,4.203ZM497.924,13.202L496.35,13.21L494.777,13.223L493.205,13.24L491.634,13.262L490.064,13.29L488.496,13.322L486.929,13.359L485.363,13.402L483.798,13.449L482.235,13.501L480.672,13.558L479.111,13.62L477.552,13.686L475.993,13.758L474.436,13.835L472.88,13.916L471.326,14.002L469.772,14.094L468.221,14.19L466.67,14.291L465.121,14.396L463.573,14.507L462.026,14.622L460.48,14.742L458.936,14.867L457.394,14.997L455.853,15.132L454.313,15.271L452.774,15.415L451.237,15.564L449.702,15.718L448.167,15.877L446.634,16.04L445.103,16.208L443.573,16.38L442.044,16.558L440.517,16.74L438.991,16.927L437.467,17.118L435.944,17.315L434.423,17.515L432.903,17.721L431.385,17.931L429.868,18.146L428.352,18.366L426.839,18.59L425.326,18.819L423.815,19.053L422.306,19.291L420.798,19.534L419.292,19.781L417.787,20.033L416.284,20.29L414.783,20.551L413.283,20.817L411.784,21.087L410.288,21.362L408.792,21.642L407.299,21.926L405.807,22.214L404.316,22.508L402.828,22.805L401.34,23.108L399.855,23.414L398.371,23.725L396.889,24.041L395.408,24.361L393.93,24.686L392.452,25.015L390.977,25.349L389.503,25.687L388.031,26.03L386.561,26.377L385.092,26.728L383.625,27.084L382.16,27.445L380.696,27.809L379.235,28.179L377.774,28.552L376.316,28.93L374.86,29.313L373.405,29.699L371.952,30.09L370.501,30.486L369.052,30.886L367.604,31.29L366.159,31.699L364.715,32.111L363.273,32.529L361.832,32.95L360.394,33.376L358.957,33.806L357.523,34.241L356.09,34.679L354.659,35.122L353.23,35.57L351.803,36.021L350.377,36.477L348.954,36.937L347.532,37.402L346.113,37.87L344.695,38.343L343.279,38.82L341.866,39.302L340.454,39.787L339.044,40.277L337.636,40.771L336.23,41.269L334.826,41.771L333.424,42.277L332.024,42.788L330.626,43.303L329.23,43.822L327.836,44.345L326.444,44.872L325.054,45.403L323.666,45.938L322.28,46.478L320.896,47.022L319.514,47.569L318.135,48.121L316.757,48.677L315.381,49.237L314.008,49.801L312.637,50.369L311.267,50.942L309.9,51.518L308.535,52.098L307.172,52.682L305.811,53.271L304.453,53.863L303.096,54.459L301.742,55.06L300.39,55.664L299.039,56.272L297.691,56.885L296.346,57.501L295.002,58.121L293.661,58.745L292.322,59.373L290.985,60.005L289.65,60.641L288.318,61.281L286.988,61.925L285.66,62.573L284.334,63.225L283.011,63.88L281.69,64.54L280.371,65.203L279.054,65.87L277.74,66.541L276.428,67.216L275.118,67.895L273.811,68.577L272.506,69.264L271.203,69.954L269.902,70.648L268.604,71.346L267.308,72.048L266.015,72.754L264.724,73.463L263.435,74.176L262.149,74.893L260.865,75.613L259.584,76.338L258.305,77.066L257.028,77.798L255.754,78.534L254.482,79.273L253.212,80.016L251.945,80.763L250.681,81.513L249.419,82.268L248.159,83.026L246.902,83.787L245.647,84.552L244.395,85.321L243.146,86.094L241.898,86.87L240.654,87.65L239.411,88.434L238.172,89.221L236.935,90.012L235.7,90.806L234.468,91.604L233.239,92.406L232.012,93.211L230.787,94.02L229.565,94.832L228.346,95.648L227.13,96.468L225.916,97.291L224.704,98.118L223.495,98.948L222.289,99.782L221.086,100.619L219.885,101.46L218.686,102.304L217.491,103.152L216.298,104.003L215.107,104.858L213.92,105.716L212.735,106.578L211.553,107.444L210.373,108.312L209.196,109.184L208.022,110.06L206.85,110.939L205.682,111.822L204.516,112.707L203.352,113.597L202.192,114.49L201.034,115.386L199.879,116.285L198.727,117.188L197.577,118.094L196.431,119.004L195.287,119.917L194.146,120.833L193.008,121.753L191.872,122.676L190.739,123.603L189.61,124.532L188.483,125.465L187.359,126.402L186.237,127.341L185.119,128.284L184.003,129.231L182.891,130.18L181.781,131.133L180.674,132.089L179.57,133.048L178.469,134.011L177.371,134.977L176.275,135.946L175.183,136.918L174.094,137.894L173.007,138.872L171.924,139.854L170.843,140.839L169.766,141.828L168.691,142.819L167.619,143.814L166.551,144.812L165.485,145.813L164.422,146.817L163.363,147.824L162.306,148.835L161.253,149.848L160.202,150.865L159.155,151.885L158.11,152.908L157.069,153.934L156.03,154.963L154.995,155.995L153.963,157.03L152.934,158.069L151.908,159.11L150.885,160.155L149.865,161.202L148.848,162.253L147.835,163.306L146.824,164.363L145.817,165.422L144.813,166.485L143.812,167.551L142.814,168.619L141.819,169.691L140.828,170.766L139.839,171.843L138.854,172.924L137.872,174.007L136.894,175.094L135.918,176.183L134.946,177.275L133.977,178.371L133.011,179.469L132.048,180.57L131.089,181.674L130.133,182.781L129.18,183.891L128.231,185.003L127.284,186.119L126.341,187.237L125.402,188.359L124.465,189.483L123.532,190.61L122.603,191.739L121.676,192.872L120.753,194.007L119.833,195.146L118.917,196.287L118.004,197.431L117.094,198.577L116.188,199.727L115.285,200.879L114.386,202.034L113.49,203.192L112.597,204.352L111.707,205.516L110.822,206.682L109.939,207.85L109.06,209.022L108.184,210.196L107.312,211.373L106.444,212.552L105.578,213.735L104.717,214.92L103.858,216.107L103.003,217.298L102.152,218.491L101.304,219.686L100.46,220.885L99.619,222.086L98.782,223.289L97.948,224.495L97.118,225.704L96.291,226.916L95.468,228.13L94.649,229.346L93.832,230.566L93.02,231.787L92.211,233.012L91.406,234.239L90.604,235.468L89.806,236.7L89.012,237.935L88.221,239.172L87.434,240.411L86.65,241.654L85.87,242.898L85.094,244.146L84.321,245.395L83.552,246.647L82.787,247.902L82.026,249.159L81.268,250.419L80.513,251.681L79.763,252.945L79.016,254.212L78.273,255.482L77.534,256.754L76.798,258.028L76.066,259.305L75.338,260.584L74.613,261.865L73.893,263.149L73.176,264.435L72.463,265.724L71.753,267.015L71.048,268.308L70.346,269.604L69.648,270.902L68.954,272.203L68.264,273.505L67.577,274.811L66.895,276.118L66.216,277.428L65.541,278.74L64.87,280.054L64.203,281.371L63.54,282.69L62.88,284.011L62.225,285.334L61.573,286.66L60.925,287.988L60.281,289.318L59.641,290.65L59.005,291.985L58.373,293.322L57.745,294.661L57.121,296.002L56.501,297.346L55.885,298.692L55.272,300.039L54.664,301.389L54.06,302.742L53.459,304.096L52.863,305.452L52.271,306.811L51.682,308.172L51.098,309.535L50.518,310.9L49.942,312.267L49.369,313.637L48.801,315.008L48.237,316.381L47.677,317.757L47.121,319.135L46.569,320.514L46.022,321.896L45.478,323.28L44.938,324.666L44.403,326.054L43.872,327.444L43.345,328.836L42.822,330.23L42.303,331.626L41.788,333.024L41.277,334.424L40.771,335.826L40.269,337.23L39.771,338.636L39.277,340.044L38.787,341.454L38.302,342.866L37.82,344.279L37.343,345.695L36.87,347.113L36.402,348.532L35.937,349.954L35.477,351.377L35.021,352.803L34.57,354.23L34.123,355.659L33.679,357.09L33.241,358.523L32.806,359.957L32.376,361.394L31.95,362.832L31.529,364.273L31.111,365.715L30.699,367.159L30.29,368.604L29.886,370.052L29.486,371.501L29.09,372.952L28.699,374.405L28.313,375.86L27.93,377.316L27.552,378.775L27.179,380.235L26.809,381.696L26.445,383.16L26.084,384.625L25.728,386.092L25.377,387.561L25.03,389.031L24.687,390.503L24.349,391.977L24.015,393.452L23.686,394.93L23.362,396.408L23.041,397.889L22.726,399.371L22.414,400.855L22.108,402.34L21.805,403.828L21.508,405.316L21.214,406.807L20.926,408.299L20.642,409.792L20.362,411.288L20.087,412.784L19.817,414.283L19.551,415.783L19.29,417.284L19.033,418.787L18.781,420.292L18.534,421.798L18.291,423.306L18.053,424.815L17.819,426.326L17.59,427.839L17.366,429.352L17.146,430.868L16.931,432.385L16.721,433.903L16.516,435.423L16.315,436.944L16.118,438.467L15.927,439.991L15.74,441.517L15.558,443.044L15.38,444.573L15.208,446.103L15.04,447.634L14.876,449.167L14.718,450.702L14.564,452.237L14.415,453.774L14.271,455.313L14.132,456.853L13.997,458.394L13.867,459.936L13.742,461.481L13.622,463.026L13.507,464.572L13.396,466.12L13.291,467.67L13.19,469.22L13.094,470.772L13.002,472.326L12.916,473.88L12.835,475.436L12.758,476.993L12.686,478.552L12.62,480.112L12.558,481.672L12.501,483.235L12.449,484.798L12.402,486.363L12.359,487.929L12.322,489.496L12.29,491.064L12.262,492.634L12.24,494.205L12.222,495.777L12.21,497.35L12.202,498.924L12.2,500.5L12.202,502.076L12.21,503.65L12.222,505.223L12.24,506.795L12.262,508.366L12.29,509.936L12.322,511.504L12.359,513.071L12.402,514.637L12.449,516.202L12.501,517.765L12.558,519.328L12.62,520.889L12.686,522.448L12.758,524.007L12.835,525.564L12.916,527.12L13.002,528.674L13.094,530.228L13.19,531.78L13.291,533.33L13.396,534.879L13.507,536.428L13.622,537.974L13.742,539.519L13.867,541.064L13.997,542.606L14.132,544.147L14.271,545.687L14.415,547.226L14.564,548.763L14.718,550.299L14.876,551.833L15.04,553.366L15.208,554.897L15.38,556.427L15.558,557.956L15.74,559.483L15.927,561.009L16.118,562.533L16.315,564.056L16.516,565.577L16.721,567.097L16.931,568.615L17.146,570.132L17.366,571.648L17.59,573.161L17.819,574.674L18.053,576.185L18.291,577.694L18.534,579.202L18.781,580.708L19.033,582.213L19.29,583.716L19.551,585.217L19.817,586.717L20.087,588.216L20.362,589.712L20.642,591.208L20.926,592.701L21.214,594.193L21.508,595.684L21.805,597.172L22.108,598.66L22.414,600.145L22.726,601.629L23.041,603.111L23.361,604.592L23.686,606.07L24.015,607.548L24.349,609.023L24.687,610.497L25.03,611.969L25.377,613.439L25.728,614.908L26.084,616.375L26.445,617.84L26.809,619.304L27.179,620.765L27.552,622.225L27.93,623.684L28.313,625.14L28.699,626.595L29.09,628.048L29.486,629.499L29.886,630.948L30.29,632.396L30.699,633.841L31.111,635.285L31.529,636.728L31.95,638.168L32.376,639.606L32.806,641.043L33.241,642.477L33.68,643.91L34.123,645.341L34.57,646.77L35.021,648.197L35.477,649.623L35.937,651.046L36.402,652.468L36.87,653.887L37.343,655.305L37.82,656.721L38.302,658.135L38.787,659.546L39.277,660.956L39.771,662.364L40.269,663.77L40.771,665.174L41.277,666.576L41.788,667.976L42.303,669.374L42.822,670.77L43.345,672.164L43.872,673.556L44.403,674.946L44.938,676.334L45.478,677.72L46.022,679.104L46.569,680.486L47.121,681.865L47.677,683.243L48.237,684.619L48.801,685.992L49.369,687.364L49.942,688.733L50.518,690.1L51.098,691.465L51.682,692.828L52.271,694.189L52.863,695.547L53.459,696.904L54.06,698.258L54.664,699.611L55.272,700.961L55.884,702.309L56.501,703.654L57.121,704.998L57.745,706.339L58.373,707.678L59.005,709.015L59.641,710.349L60.281,711.682L60.925,713.012L61.573,714.34L62.225,715.666L62.88,716.989L63.54,718.311L64.203,719.629L64.87,720.946L65.541,722.26L66.216,723.572L66.895,724.882L67.577,726.189L68.264,727.495L68.954,728.797L69.648,730.098L70.346,731.396L71.048,732.692L71.753,733.985L72.463,735.276L73.176,736.565L73.893,737.851L74.613,739.135L75.338,740.416L76.066,741.695L76.798,742.972L77.534,744.246L78.273,745.518L79.016,746.788L79.763,748.055L80.513,749.319L81.268,750.581L82.026,751.841L82.787,753.098L83.552,754.353L84.321,755.605L85.094,756.854L85.87,758.102L86.65,759.346L87.434,760.589L88.221,761.828L89.012,763.065L89.806,764.3L90.604,765.532L91.406,766.762L92.211,767.989L93.02,769.213L93.833,770.435L94.649,771.654L95.468,772.87L96.291,774.084L97.118,775.296L97.948,776.505L98.782,777.711L99.619,778.914L100.46,780.115L101.304,781.314L102.152,782.509L103.003,783.702L103.858,784.892L104.717,786.08L105.578,787.265L106.444,788.448L107.312,789.627L108.184,790.804L109.06,791.978L109.939,793.15L110.822,794.318L111.708,795.485L112.597,796.648L113.489,797.808L114.386,798.966L115.285,800.121L116.188,801.273L117.094,802.422L118.004,803.569L118.917,804.713L119.833,805.854L120.753,806.993L121.676,808.128L122.603,809.261L123.532,810.39L124.465,811.517L125.402,812.641L126.341,813.763L127.285,814.881L128.231,815.997L129.18,817.109L130.133,818.219L131.089,819.326L132.048,820.43L133.011,821.531L133.977,822.629L134.946,823.725L135.918,824.817L136.894,825.906L137.872,826.993L138.854,828.076L139.839,829.157L140.828,830.234L141.819,831.309L142.814,832.381L143.812,833.449L144.813,834.515L145.817,835.577L146.824,836.637L147.835,837.694L148.848,838.747L149.865,839.798L150.885,840.845L151.908,841.89L152.934,842.931L153.963,843.97L154.995,845.005L156.03,846.037L157.069,847.066L158.11,848.092L159.154,849.115L160.202,850.135L161.253,851.152L162.306,852.165L163.363,853.176L164.422,854.183L165.485,855.187L166.551,856.188L167.619,857.186L168.691,858.181L169.766,859.172L170.843,860.16L171.924,861.146L173.007,862.128L174.094,863.106L175.183,864.082L176.275,865.054L177.371,866.023L178.469,866.989L179.57,867.952L180.674,868.911L181.781,869.867L182.891,870.82L184.003,871.769L185.119,872.716L186.237,873.659L187.358,874.598L188.483,875.534L189.61,876.468L190.739,877.397L191.872,878.324L193.008,879.247L194.146,880.167L195.287,881.083L196.431,881.996L197.577,882.906L198.727,883.812L199.879,884.715L201.034,885.614L202.192,886.511L203.352,887.403L204.516,888.292L205.682,889.178L206.85,890.061L208.022,890.94L209.196,891.816L210.373,892.688L211.553,893.556L212.735,894.422L213.92,895.283L215.108,896.142L216.298,896.997L217.491,897.848L218.686,898.696L219.885,899.54L221.085,900.381L222.289,901.218L223.495,902.052L224.704,902.882L225.916,903.709L227.13,904.532L228.346,905.351L229.565,906.167L230.787,906.98L232.012,907.789L233.239,908.594L234.468,909.396L235.7,910.194L236.935,910.988L238.172,911.779L239.412,912.566L240.654,913.35L241.898,914.13L243.145,914.906L244.395,915.679L245.647,916.448L246.902,917.213L248.159,917.974L249.419,918.732L250.681,919.487L251.945,920.237L253.212,920.984L254.482,921.727L255.754,922.466L257.028,923.202L258.305,923.934L259.584,924.662L260.865,925.387L262.149,926.107L263.435,926.824L264.724,927.537L266.015,928.247L267.308,928.952L268.604,929.654L269.902,930.352L271.202,931.046L272.506,931.736L273.811,932.423L275.118,933.105L276.428,933.784L277.74,934.459L279.054,935.13L280.371,935.797L281.69,936.461L283.011,937.12L284.334,937.775L285.66,938.427L286.988,939.075L288.318,939.719L289.65,940.359L290.985,940.995L292.322,941.627L293.661,942.255L295.002,942.879L296.346,943.499L297.691,944.116L299.039,944.728L300.389,945.336L301.742,945.94L303.096,946.541L304.453,947.137L305.811,947.729L307.172,948.318L308.535,948.902L309.9,949.482L311.267,950.058L312.637,950.631L314.008,951.199L315.381,951.763L316.757,952.323L318.135,952.879L319.514,953.431L320.896,953.978L322.28,954.522L323.666,955.061L325.054,955.597L326.444,956.128L327.836,956.655L329.23,957.178L330.626,957.697L332.024,958.212L333.424,958.723L334.826,959.229L336.23,959.731L337.636,960.229L339.044,960.723L340.454,961.213L341.865,961.698L343.279,962.18L344.695,962.657L346.113,963.13L347.532,963.598L348.954,964.063L350.377,964.523L351.802,964.979L353.23,965.43L354.659,965.877L356.09,966.321L357.523,966.759L358.957,967.194L360.394,967.624L361.832,968.05L363.273,968.471L364.715,968.888L366.159,969.301L367.604,969.71L369.052,970.114L370.501,970.514L371.952,970.91L373.405,971.301L374.86,971.687L376.316,972.07L377.774,972.448L379.235,972.821L380.696,973.191L382.16,973.555L383.625,973.916L385.092,974.271L386.561,974.623L388.031,974.97L389.503,975.313L390.977,975.651L392.452,975.985L393.93,976.314L395.409,976.639L396.889,976.959L398.371,977.274L399.855,977.586L401.34,977.893L402.827,978.195L404.316,978.492L405.807,978.786L407.299,979.074L408.792,979.358L410.288,979.638L411.784,979.913L413.283,980.183L414.783,980.449L416.284,980.71L417.788,980.967L419.292,981.219L420.798,981.466L422.306,981.709L423.815,981.947L425.326,982.181L426.839,982.41L428.352,982.634L429.868,982.854L431.385,983.069L432.903,983.279L434.423,983.485L435.944,983.685L437.467,983.882L438.991,984.073L440.517,984.26L442.044,984.442L443.573,984.62L445.103,984.792L446.634,984.96L448.167,985.124L449.702,985.282L451.237,985.436L452.774,985.585L454.313,985.729L455.853,985.868L457.394,986.003L458.937,986.133L460.48,986.258L462.026,986.378L463.573,986.493L465.12,986.604L466.67,986.709L468.221,986.81L469.772,986.907L471.326,986.998L472.88,987.084L474.436,987.165L475.993,987.242L477.552,987.314L479.111,987.38L480.672,987.442L482.235,987.499L483.798,987.551L485.363,987.598L486.929,987.641L488.496,987.678L490.064,987.71L491.634,987.738L493.205,987.76L494.777,987.777L496.35,987.79L497.924,987.797L499.5,987.8L501.076,987.797L502.65,987.79L504.223,987.777L505.795,987.76L507.366,987.738L508.936,987.71L510.504,987.678L512.071,987.641L513.637,987.598L515.202,987.551L516.765,987.499L518.328,987.442L519.889,987.38L521.448,987.314L523.007,987.242L524.564,987.165L526.12,987.084L527.674,986.998L529.228,986.907L530.779,986.81L532.33,986.709L533.88,986.604L535.427,986.493L536.974,986.378L538.52,986.258L540.063,986.133L541.606,986.003L543.147,985.868L544.687,985.729L546.226,985.585L547.763,985.436L549.298,985.282L550.833,985.124L552.366,984.96L553.897,984.792L555.427,984.62L556.956,984.442L558.483,984.26L560.009,984.073L561.533,983.882L563.056,983.685L564.577,983.485L566.097,983.279L567.615,983.069L569.132,982.854L570.648,982.634L572.161,982.41L573.674,982.181L575.185,981.947L576.694,981.709L578.202,981.466L579.708,981.219L581.212,980.967L582.716,980.71L584.217,980.449L585.717,980.183L587.216,979.913L588.712,979.638L590.208,979.358L591.701,979.074L593.193,978.786L594.684,978.492L596.173,978.195L597.66,977.893L599.145,977.586L600.629,977.274L602.111,976.959L603.591,976.639L605.07,976.314L606.548,975.985L608.023,975.651L609.497,975.313L610.969,974.97L612.439,974.623L613.908,974.271L615.375,973.916L616.84,973.555L618.304,973.191L619.765,972.821L621.226,972.448L622.684,972.07L624.14,971.688L625.595,971.301L627.048,970.91L628.499,970.514L629.948,970.114L631.396,969.71L632.841,969.301L634.285,968.888L635.727,968.471L637.168,968.05L638.606,967.624L640.043,967.194L641.477,966.759L642.91,966.321L644.341,965.877L645.77,965.43L647.198,964.979L648.623,964.523L650.046,964.063L651.468,963.598L652.887,963.13L654.305,962.657L655.721,962.18L657.135,961.698L658.546,961.213L659.956,960.723L661.364,960.229L662.77,959.731L664.174,959.229L665.576,958.723L666.976,958.212L668.374,957.697L669.77,957.178L671.164,956.655L672.556,956.128L673.946,955.597L675.334,955.061L676.72,954.522L678.104,953.978L679.486,953.431L680.865,952.879L682.243,952.323L683.619,951.763L684.992,951.199L686.363,950.631L687.733,950.058L689.1,949.482L690.465,948.902L691.828,948.318L693.189,947.729L694.547,947.137L695.904,946.541L697.258,945.94L698.611,945.336L699.961,944.728L701.309,944.116L702.654,943.499L703.998,942.879L705.339,942.255L706.678,941.627L708.015,940.995L709.35,940.359L710.682,939.719L712.012,939.075L713.34,938.427L714.666,937.775L715.989,937.12L717.31,936.461L718.629,935.797L719.946,935.13L721.26,934.459L722.572,933.784L723.882,933.105L725.189,932.423L726.494,931.736L727.797,931.046L729.098,930.352L730.396,929.654L731.691,928.952L732.985,928.246L734.276,927.537L735.565,926.824L736.851,926.107L738.135,925.387L739.416,924.662L740.695,923.934L741.972,923.202L743.246,922.466L744.518,921.727L745.788,920.984L747.055,920.237L748.319,919.487L749.581,918.732L750.841,917.974L752.098,917.213L753.353,916.448L754.605,915.679L755.854,914.906L757.102,914.13L758.346,913.35L759.589,912.566L760.828,911.779L762.065,910.988L763.3,910.194L764.532,909.396L765.761,908.594L766.988,907.789L768.213,906.98L769.435,906.167L770.654,905.352L771.87,904.532L773.084,903.709L774.296,902.882L775.505,902.052L776.711,901.218L777.915,900.381L779.115,899.54L780.314,898.696L781.509,897.848L782.702,896.997L783.892,896.142L785.08,895.283L786.265,894.422L787.447,893.556L788.627,892.688L789.804,891.816L790.978,890.94L792.15,890.061L793.318,889.178L794.484,888.292L795.648,887.403L796.808,886.511L797.966,885.614L799.121,884.715L800.273,883.812L801.423,882.906L802.569,881.996L803.713,881.083L804.854,880.167L805.992,879.247L807.128,878.324L808.261,877.397L809.39,876.468L810.517,875.534L811.642,874.598L812.763,873.659L813.881,872.716L814.997,871.769L816.109,870.82L817.219,869.867L818.326,868.911L819.43,867.952L820.531,866.989L821.629,866.023L822.725,865.054L823.817,864.082L824.906,863.106L825.993,862.128L827.076,861.146L828.157,860.16L829.234,859.172L830.309,858.181L831.381,857.186L832.449,856.188L833.515,855.187L834.578,854.183L835.637,853.176L836.694,852.165L837.747,851.152L838.798,850.135L839.846,849.115L840.89,848.092L841.931,847.066L842.97,846.037L844.005,845.005L845.037,843.97L846.066,842.931L847.092,841.89L848.115,840.845L849.135,839.798L850.152,838.747L851.165,837.694L852.176,836.637L853.183,835.577L854.187,834.515L855.188,833.449L856.186,832.381L857.181,831.309L858.172,830.234L859.161,829.157L860.146,828.076L861.128,826.993L862.106,825.906L863.082,824.817L864.054,823.725L865.023,822.629L865.989,821.531L866.952,820.43L867.911,819.326L868.867,818.219L869.82,817.109L870.769,815.997L871.715,814.881L872.659,813.762L873.598,812.641L874.535,811.517L875.468,810.39L876.397,809.261L877.324,808.128L878.247,806.993L879.166,805.854L880.083,804.713L880.996,803.569L881.906,802.422L882.812,801.273L883.715,800.121L884.614,798.966L885.511,797.808L886.403,796.648L887.292,795.485L888.178,794.318L889.061,793.15L889.94,791.978L890.816,790.804L891.688,789.627L892.556,788.448L893.422,787.265L894.283,786.08L895.142,784.893L895.997,783.702L896.848,782.509L897.696,781.314L898.54,780.115L899.381,778.914L900.218,777.711L901.052,776.505L901.882,775.296L902.709,774.084L903.532,772.87L904.352,771.654L905.168,770.435L905.98,769.213L906.789,767.989L907.594,766.762L908.396,765.532L909.194,764.3L909.988,763.065L910.779,761.828L911.566,760.589L912.35,759.346L913.13,758.102L913.906,756.855L914.679,755.605L915.448,754.352L916.213,753.098L916.974,751.841L917.732,750.581L918.487,749.319L919.237,748.055L919.984,746.788L920.727,745.518L921.466,744.246L922.202,742.972L922.934,741.695L923.662,740.416L924.387,739.135L925.107,737.851L925.824,736.565L926.537,735.276L927.246,733.985L927.952,732.692L928.654,731.396L929.352,730.098L930.046,728.797L930.736,727.495L931.423,726.189L932.105,724.882L932.784,723.572L933.459,722.26L934.13,720.946L934.797,719.629L935.46,718.311L936.12,716.989L936.775,715.666L937.427,714.34L938.075,713.012L938.719,711.682L939.359,710.35L939.995,709.015L940.627,707.678L941.255,706.339L941.879,704.998L942.499,703.654L943.116,702.308L943.728,700.961L944.336,699.611L944.94,698.258L945.541,696.904L946.137,695.547L946.729,694.189L947.318,692.828L947.902,691.465L948.482,690.1L949.058,688.733L949.631,687.364L950.199,685.992L950.763,684.619L951.323,683.243L951.879,681.865L952.431,680.486L952.978,679.104L953.522,677.72L954.062,676.334L954.597,674.946L955.128,673.556L955.655,672.164L956.178,670.77L956.697,669.374L957.212,667.976L957.723,666.576L958.229,665.174L958.731,663.77L959.229,662.364L959.723,660.956L960.213,659.546L960.698,658.135L961.18,656.721L961.657,655.305L962.13,653.887L962.598,652.468L963.063,651.046L963.523,649.623L963.979,648.197L964.43,646.77L964.877,645.341L965.32,643.91L965.759,642.477L966.194,641.043L966.624,639.606L967.05,638.168L967.471,636.728L967.888,635.285L968.301,633.841L968.71,632.396L969.114,630.948L969.514,629.499L969.91,628.048L970.301,626.595L970.687,625.14L971.07,623.684L971.448,622.225L971.821,620.765L972.191,619.304L972.555,617.84L972.916,616.375L973.272,614.908L973.623,613.439L973.97,611.969L974.313,610.497L974.651,609.023L974.985,607.548L975.314,606.071L975.638,604.592L975.959,603.111L976.275,601.629L976.586,600.145L976.892,598.66L977.195,597.172L977.492,595.684L977.785,594.193L978.074,592.701L978.358,591.208L978.638,589.713L978.913,588.216L979.183,586.717L979.449,585.217L979.71,583.716L979.967,582.213L980.219,580.708L980.466,579.202L980.709,577.694L980.947,576.185L981.181,574.674L981.41,573.161L981.634,571.648L981.854,570.132L982.069,568.615L982.279,567.097L982.484,565.577L982.685,564.056L982.882,562.533L983.073,561.009L983.26,559.483L983.442,557.956L983.62,556.427L983.792,554.897L983.96,553.366L984.124,551.833L984.282,550.299L984.436,548.763L984.585,547.226L984.729,545.687L984.868,544.147L985.003,542.606L985.133,541.064L985.258,539.519L985.378,537.974L985.493,536.428L985.604,534.879L985.709,533.33L985.81,531.78L985.906,530.228L985.998,528.674L986.084,527.12L986.165,525.564L986.242,524.007L986.314,522.448L986.38,520.889L986.442,519.328L986.499,517.765L986.551,516.202L986.598,514.637L986.641,513.071L986.678,511.504L986.71,509.936L986.738,508.366L986.76,506.795L986.778,505.223L986.79,503.65L986.797,502.076L986.8,500.5L986.797,498.924L986.79,497.35L986.778,495.777L986.76,494.205L986.738,492.634L986.71,491.064L986.678,489.496L986.641,487.929L986.598,486.363L986.551,484.798L986.499,483.235L986.442,481.673L986.38,480.112L986.314,478.552L986.242,476.993L986.165,475.436L986.084,473.88L985.998,472.326L985.906,470.772L985.81,469.22L985.709,467.67L985.604,466.121L985.493,464.572L985.378,463.026L985.258,461.481L985.133,459.936L985.003,458.394L984.868,456.853L984.729,455.313L984.585,453.774L984.436,452.237L984.282,450.701L984.124,449.167L983.96,447.634L983.792,446.103L983.62,444.573L983.442,443.044L983.26,441.517L983.073,439.991L982.882,438.467L982.685,436.944L982.484,435.423L982.279,433.903L982.069,432.385L981.854,430.868L981.634,429.352L981.41,427.839L981.181,426.326L980.947,424.815L980.709,423.306L980.466,421.798L980.219,420.292L979.967,418.787L979.71,417.284L979.449,415.783L979.183,414.283L978.913,412.784L978.638,411.287L978.358,409.792L978.074,408.299L977.785,406.807L977.492,405.316L977.195,403.828L976.892,402.34L976.586,400.855L976.275,399.371L975.959,397.889L975.638,396.408L975.314,394.929L974.985,393.452L974.651,391.977L974.313,390.503L973.97,389.031L973.623,387.56L973.272,386.092L972.916,384.625L972.555,383.16L972.191,381.696L971.821,380.235L971.448,378.775L971.07,377.316L970.687,375.86L970.301,374.405L969.91,372.952L969.514,371.501L969.114,370.052L968.71,368.604L968.301,367.159L967.889,365.715L967.471,364.272L967.05,362.832L966.624,361.394L966.194,359.957L965.759,358.523L965.32,357.09L964.877,355.659L964.43,354.23L963.978,352.803L963.523,351.377L963.062,349.954L962.598,348.532L962.13,347.113L961.657,345.695L961.18,344.279L960.698,342.866L960.213,341.454L959.723,340.044L959.229,338.636L958.731,337.23L958.229,335.826L957.723,334.424L957.212,333.024L956.697,331.626L956.178,330.23L955.655,328.836L955.128,327.444L954.597,326.054L954.062,324.666L953.522,323.28L952.978,321.896L952.431,320.514L951.879,319.135L951.323,317.757L950.763,316.381L950.199,315.008L949.631,313.637L949.058,312.267L948.482,310.9L947.902,309.535L947.318,308.172L946.729,306.811L946.137,305.452L945.541,304.096L944.94,302.742L944.336,301.389L943.728,300.039L943.116,298.692L942.499,297.346L941.879,296.002L941.255,294.661L940.627,293.322L939.995,291.985L939.359,290.65L938.719,289.318L938.075,287.988L937.427,286.66L936.775,285.334L936.12,284.011L935.46,282.689L934.797,281.371L934.13,280.054L933.459,278.74L932.784,277.428L932.105,276.118L931.423,274.811L930.736,273.505L930.046,272.203L929.352,270.902L928.654,269.604L927.952,268.309L927.246,267.015L926.537,265.724L925.824,264.435L925.107,263.149L924.387,261.865L923.662,260.584L922.934,259.305L922.202,258.028L921.467,256.754L920.727,255.482L919.984,254.212L919.237,252.945L918.487,251.681L917.732,250.419L916.974,249.159L916.213,247.902L915.448,246.647L914.679,245.395L913.906,244.145L913.13,242.898L912.35,241.654L911.566,240.411L910.779,239.172L909.988,237.935L909.194,236.7L908.396,235.468L907.594,234.238L906.789,233.012L905.98,231.787L905.168,230.566L904.352,229.346L903.532,228.13L902.709,226.916L901.882,225.704L901.052,224.495L900.218,223.289L899.381,222.086L898.54,220.885L897.696,219.686L896.848,218.491L895.997,217.298L895.142,216.107L894.283,214.92L893.422,213.735L892.556,212.552L891.688,211.373L890.816,210.196L889.94,209.022L889.061,207.85L888.178,206.682L887.293,205.516L886.403,204.352L885.511,203.192L884.614,202.034L883.715,200.879L882.812,199.727L881.906,198.577L880.996,197.431L880.083,196.287L879.166,195.146L878.247,194.007L877.324,192.872L876.397,191.739L875.468,190.61L874.535,189.483L873.598,188.359L872.659,187.237L871.716,186.119L870.769,185.003L869.82,183.891L868.867,182.781L867.911,181.674L866.952,180.57L865.989,179.469L865.023,178.371L864.054,177.275L863.082,176.183L862.106,175.094L861.128,174.007L860.146,172.924L859.161,171.843L858.172,170.766L857.181,169.691L856.186,168.619L855.188,167.551L854.187,166.485L853.183,165.422L852.176,164.363L851.165,163.306L850.152,162.253L849.135,161.202L848.115,160.155L847.092,159.11L846.066,158.069L845.037,157.03L844.005,155.995L842.97,154.963L841.931,153.934L840.89,152.908L839.845,151.885L838.798,150.865L837.747,149.848L836.694,148.835L835.637,147.824L834.577,146.817L833.515,145.813L832.449,144.812L831.381,143.814L830.309,142.819L829.234,141.828L828.157,140.839L827.076,139.854L825.993,138.872L824.906,137.894L823.817,136.918L822.724,135.946L821.629,134.977L820.531,134.011L819.43,133.048L818.326,132.089L817.219,131.133L816.109,130.18L814.997,129.231L813.881,128.284L812.763,127.341L811.641,126.402L810.517,125.465L809.39,124.532L808.261,123.603L807.128,122.676L805.992,121.753L804.854,120.833L803.713,119.917L802.569,119.004L801.423,118.094L800.273,117.188L799.121,116.285L797.966,115.386L796.808,114.49L795.647,113.597L794.484,112.707L793.318,111.822L792.15,110.939L790.978,110.06L789.804,109.185L788.627,108.312L787.447,107.444L786.265,106.578L785.08,105.716L783.893,104.858L782.702,104.003L781.509,103.152L780.314,102.304L779.115,101.46L777.914,100.619L776.711,99.782L775.505,98.948L774.296,98.118L773.084,97.291L771.87,96.468L770.654,95.648L769.435,94.832L768.213,94.02L766.988,93.211L765.761,92.406L764.532,91.604L763.3,90.806L762.065,90.012L760.828,89.221L759.589,88.434L758.346,87.65L757.102,86.87L755.854,86.094L754.605,85.321L753.353,84.552L752.098,83.787L750.841,83.026L749.581,82.268L748.319,81.513L747.055,80.763L745.788,80.016L744.518,79.273L743.246,78.534L741.972,77.798L740.695,77.066L739.416,76.338L738.135,75.613L736.851,74.893L735.565,74.176L734.276,73.463L732.985,72.754L731.691,72.048L730.396,71.346L729.098,70.648L727.797,69.954L726.494,69.264L725.189,68.577L723.882,67.895L722.572,67.216L721.26,66.541L719.946,65.87L718.629,65.203L717.31,64.54L715.989,63.88L714.666,63.224L713.34,62.573L712.012,61.925L710.682,61.281L709.35,60.641L708.015,60.005L706.678,59.373L705.339,58.745L703.998,58.121L702.654,57.501L701.309,56.885L699.961,56.272L698.611,55.664L697.258,55.06L695.904,54.459L694.547,53.863L693.189,53.271L691.828,52.682L690.465,52.098L689.1,51.518L687.733,50.942L686.363,50.369L684.992,49.801L683.619,49.237L682.243,48.677L680.865,48.121L679.486,47.569L678.104,47.022L676.72,46.478L675.334,45.938L673.946,45.403L672.556,44.872L671.164,44.345L669.77,43.822L668.374,43.303L666.976,42.788L665.576,42.277L664.174,41.771L662.77,41.269L661.364,40.771L659.956,40.277L658.546,39.787L657.134,39.302L655.721,38.82L654.305,38.343L652.887,37.87L651.468,37.402L650.046,36.937L648.623,36.477L647.197,36.021L645.77,35.57L644.341,35.122L642.91,34.679L641.477,34.241L640.043,33.806L638.606,33.376L637.168,32.95L635.727,32.529L634.285,32.111L632.841,31.699L631.396,31.29L629.948,30.886L628.499,30.486L627.048,30.09L625.595,29.699L624.14,29.313L622.684,28.93L621.226,28.552L619.765,28.179L618.304,27.809L616.84,27.445L615.375,27.084L613.908,26.728L612.439,26.377L610.969,26.03L609.497,25.687L608.023,25.349L606.548,25.015L605.07,24.686L603.592,24.361L602.111,24.041L600.629,23.725L599.145,23.414L597.66,23.108L596.172,22.805L594.684,22.508L593.193,22.214L591.701,21.926L590.208,21.642L588.712,21.362L587.216,21.087L585.717,20.817L584.217,20.551L582.716,20.29L581.213,20.033L579.708,19.781L578.202,19.534L576.694,19.291L575.185,19.053L573.674,18.819L572.161,18.59L570.648,18.366L569.132,18.146L567.615,17.931L566.097,17.721L564.577,17.515L563.056,17.315L561.533,17.118L560.009,16.927L558.483,16.74L556.956,16.558L555.427,16.38L553.897,16.208L552.366,16.04L550.833,15.877L549.298,15.718L547.763,15.564L546.226,15.415L544.687,15.271L543.147,15.132L541.606,14.997L540.064,14.867L538.52,14.742L536.974,14.622L535.427,14.507L533.879,14.396L532.33,14.291L530.78,14.19L529.228,14.094L527.674,14.002L526.12,13.916L524.564,13.835L523.007,13.758L521.448,13.686L519.889,13.62L518.328,13.558L516.765,13.501L515.202,13.449L513.637,13.402L512.071,13.359L510.504,13.322L508.936,13.29L507.366,13.262L505.795,13.24L504.223,13.223L502.65,13.21L501.076,13.202L499.5,13.2L497.924,13.202Z" style="fill:rgb(64,224,208);"/>
            </g>
            <g transform="matrix(0.969993,0,0,0.969993,1.15716,1.20549)">
                <circle cx="38.564" cy="40.174" r="16.988" style="fill:rgb(235,235,235);"/>
            </g>
            <g transform="matrix(0.0580798,0,0,0.0580798,9.55279,10.9311)">
                <path d="M500,450.8C498.9,450.8 497.8,450.2 497.3,449.1L394.4,243.3C394,242.5 394,241.5 394.4,240.6L497.3,34.9C497.8,33.9 498.8,33.2 500,33.2C501.1,33.2 502.2,33.8 502.7,34.9L605.6,240.7C606,241.5 606,242.5 605.6,243.4L502.7,449.1C502.2,450.1 501.1,450.8 500,450.8Z" style="fill:rgb(44,156,145);fill-rule:nonzero;stroke-width:7px;stroke:rgb(64,224,208);"/>
            </g>
            <g transform="matrix(0.0580798,0,0,0.0580798,9.55279,10.9311)">
                <path d="M602.9,242L500,447.8L397.1,242L500,36.2L602.9,242Z" style="fill:rgb(44,156,145);fill-rule:nonzero;stroke-width:7px;stroke:rgb(64,224,208);"/>
            </g>
            <g transform="matrix(0.0580798,0,0,0.0580798,9.55279,10.9311)">
                <path d="M500,973.8C498.9,973.8 497.8,973.2 497.3,972.1L394.4,766.3C394,765.5 394,764.5 394.4,763.6L497.3,557.8C497.8,556.8 498.8,556.1 500,556.1C501.1,556.1 502.2,556.7 502.7,557.8L605.6,763.6C606,764.4 606,765.4 605.6,766.3L502.7,972.1C502.2,973.1 501.1,973.8 500,973.8Z" style="fill:rgb(44,156,145);fill-rule:nonzero;stroke-width:8px;stroke:rgb(64,224,208);"/>
            </g>
            <g transform="matrix(0.0580798,0,0,0.0580798,9.55279,10.9311)">
                <path d="M397.1,765L500,559.2L602.9,765L500,970.8L397.1,765Z" style="fill:rgb(44,156,145);fill-rule:nonzero;stroke-width:8px;stroke:rgb(64,224,208);"/>
            </g>
            <g transform="matrix(0.0580798,0,0,0.0580798,9.55279,10.9311)">
                <path d="M447.3,503.5C447.3,504.6 446.7,505.7 445.6,506.2L239.8,609.1C239,609.5 238,609.5 237.1,609.1L31.4,506.2C30.4,505.7 29.7,504.7 29.7,503.5C29.7,502.4 30.3,501.3 31.4,500.8L237.2,397.9C238,397.5 239,397.5 239.9,397.9L445.7,500.8C446.6,501.3 447.3,502.4 447.3,503.5Z" style="fill:rgb(44,156,145);fill-rule:nonzero;stroke-width:7px;stroke:rgb(64,224,208);"/>
            </g>
            <g transform="matrix(0.0580798,0,0,0.0580798,9.55279,10.9311)">
                <path d="M238.5,400.6L444.3,503.5L238.5,606.4L32.7,503.5L238.5,400.6Z" style="fill:rgb(44,156,145);fill-rule:nonzero;stroke-width:7px;stroke:rgb(64,224,208);"/>
            </g>
            <g transform="matrix(0.0580798,0,0,0.0580798,9.55279,10.9311)">
                <path d="M970.3,503.5C970.3,504.6 969.7,505.7 968.6,506.2L762.8,609.1C762,609.5 761,609.5 760.1,609.1L554.4,506.2C553.4,505.7 552.7,504.7 552.7,503.5C552.7,502.3 553.3,501.3 554.4,500.8L760.2,397.9C761,397.5 762,397.5 762.9,397.9L968.7,500.8C969.6,501.3 970.3,502.4 970.3,503.5Z" style="fill:rgb(44,156,145);fill-rule:nonzero;stroke-width:8px;stroke:rgb(64,224,208);"/>
            </g>
            <g transform="matrix(0.0580798,0,0,0.0580798,9.55279,10.9311)">
                <path d="M761.5,606.4L555.7,503.5L761.5,400.6L967.3,503.5L761.5,606.4Z" style="fill:rgb(44,156,145);fill-rule:nonzero;stroke-width:8px;stroke:rgb(64,224,208);"/>
            </g>
            <g transform="matrix(0.0580798,0,0,0.0580798,9.55279,10.9311)">
                <path d="M537.3,466.2C536.5,465.4 536.2,464.2 536.6,463.1L609.3,244.9C609.6,244 610.3,243.3 611.2,243L829.4,170.3C830.5,169.9 831.7,170.2 832.5,171C833.3,171.8 833.6,173 833.2,174.1L760.4,392.3C760.1,393.2 759.4,393.9 758.5,394.2L540.3,467C539.3,467.3 538.1,467 537.3,466.2Z" style="fill:rgb(44,156,145);fill-rule:nonzero;stroke-width:7px;stroke:rgb(64,224,208);"/>
            </g>
            <g transform="matrix(0.0580798,0,0,0.0580798,9.55279,10.9311)">
                <path d="M757.7,391.3L539.4,464.1L612.2,245.8L830.4,173.1L757.7,391.3Z" style="fill:rgb(44,156,145);fill-rule:nonzero;stroke-width:7px;stroke:rgb(64,224,208);"/>
            </g>
            <g transform="matrix(0.0580798,0,0,0.0580798,9.55279,10.9311)">
                <path d="M167.5,836C166.7,835.2 166.4,834 166.8,832.9L239.5,614.7C239.8,613.8 240.5,613.1 241.4,612.8L459.6,540C460.7,539.6 461.9,539.9 462.7,540.7C463.5,541.5 463.8,542.7 463.4,543.8L390.7,762C390.4,762.9 389.7,763.6 388.8,763.9L170.6,836.6C169.5,837.1 168.3,836.8 167.5,836Z" style="fill:rgb(44,156,145);fill-rule:nonzero;stroke-width:8px;stroke:rgb(64,224,208);"/>
            </g>
            <g transform="matrix(0.0580798,0,0,0.0580798,9.55279,10.9311)">
                <path d="M242.3,615.7L460.6,542.9L387.8,761.2L169.6,833.9L242.3,615.7Z" style="fill:rgb(44,156,145);fill-rule:nonzero;stroke-width:8px;stroke:rgb(64,224,208);"/>
            </g>
            <g transform="matrix(0.0580798,0,0,0.0580798,9.55279,10.9311)">
                <path d="M462.7,466.2C461.9,467 460.7,467.3 459.6,466.9L241.4,394.2C240.5,393.9 239.8,393.2 239.5,392.3L166.7,174C166.3,172.9 166.6,171.7 167.4,170.9C168.2,170.1 169.4,169.8 170.5,170.2L388.8,243C389.7,243.3 390.4,244 390.7,244.9L463.5,463.1C463.8,464.2 463.5,465.4 462.7,466.2Z" style="fill:rgb(44,156,145);fill-rule:nonzero;stroke-width:7px;stroke:rgb(64,224,208);"/>
            </g>
            <g transform="matrix(0.0580798,0,0,0.0580798,9.55279,10.9311)">
                <path d="M387.8,245.8L460.6,464.1L242.3,391.3L169.6,173.1L387.8,245.8Z" style="fill:rgb(44,156,145);fill-rule:nonzero;stroke-width:7px;stroke:rgb(64,224,208);"/>
            </g>
            <g transform="matrix(0.0580798,0,0,0.0580798,9.55279,10.9311)">
                <path d="M832.5,836C831.7,836.8 830.5,837.1 829.4,836.7L611.2,764C610.3,763.7 609.6,763 609.3,762.1L536.5,543.9C536.1,542.8 536.4,541.6 537.2,540.8C538,540 539.2,539.7 540.3,540.1L758.5,612.8C759.4,613.1 760.1,613.8 760.4,614.7L833.3,833C833.6,834 833.3,835.2 832.5,836Z" style="fill:rgb(44,156,145);fill-rule:nonzero;stroke-width:8px;stroke:rgb(64,224,208);"/>
            </g>
            <g transform="matrix(0.0580798,0,0,0.0580798,9.55279,10.9311)">
                <path d="M612.2,761.2L539.4,542.9L757.7,615.7L830.4,833.9L612.2,761.2Z" style="fill:rgb(44,156,145);fill-rule:nonzero;stroke-width:8px;stroke:rgb(64,224,208);"/>
            </g>
        </g>
    </g>
</svg>
