<?xml version="1.0" standalone="no"?>
<!DOCTYPE svg PUBLIC "-//W3C//DTD SVG 1.1//EN" "http://www.w3.org/Graphics/SVG/1.1/DTD/svg11.dtd">
<svg width="100%" height="100%" viewBox="0 0 480 180" version="1.1" xmlns="http://www.w3.org/2000/svg" xmlns:xlink="http://www.w3.org/1999/xlink" xml:space="preserve" style="fill-rule:evenodd;clip-rule:evenodd;stroke-linejoin:round;stroke-miterlimit:1.41421;">
    <g transform="matrix(10.6285,0,0,10.6285,-1454.51,-2145.54)">
        <g id="logo">
            <g>
                <path d="M151.413,204.67L155.647,204.67L155.647,216.15L155.978,216.15L155.978,204.67L160.229,204.67L160.229,204.339L151.413,204.339L151.413,204.67Z" style="fill:black;fill-rule:nonzero;"/>
                <path d="M160.196,204.339L160.196,216.15L160.527,216.15L160.527,211.336C160.527,210.862 160.593,210.41 160.726,209.98C160.858,209.55 161.054,209.172 161.313,208.847C161.572,208.521 161.895,208.262 162.281,208.069C162.667,207.876 163.113,207.78 163.621,207.78C163.984,207.78 164.329,207.832 164.654,207.937C164.98,208.041 165.266,208.207 165.515,208.433C165.763,208.659 165.958,208.946 166.102,209.293C166.245,209.641 166.317,210.062 166.317,210.559L166.317,216.15L166.648,216.15L166.648,210.509C166.648,210.013 166.573,209.574 166.424,209.194C166.276,208.813 166.066,208.494 165.796,208.234C165.526,207.975 165.206,207.78 164.836,207.647C164.467,207.515 164.062,207.449 163.621,207.449C163.201,207.449 162.821,207.507 162.479,207.622C162.137,207.738 161.837,207.901 161.578,208.11C161.318,208.32 161.103,208.563 160.932,208.838C160.762,209.114 160.637,209.417 160.56,209.748L160.527,209.748L160.527,204.339L160.196,204.339Z" style="fill:black;fill-rule:nonzero;"/>
                <path d="M167.955,210.277L168.285,210.277C168.34,209.483 168.616,208.869 169.112,208.433C169.609,207.997 170.303,207.78 171.197,207.78C171.759,207.78 172.206,207.854 172.537,208.003C172.867,208.152 173.118,208.342 173.289,208.574C173.46,208.805 173.568,209.059 173.612,209.335C173.656,209.61 173.678,209.875 173.678,210.129C173.678,210.448 173.615,210.694 173.488,210.865C173.361,211.036 173.162,211.162 172.892,211.245C172.622,211.328 172.277,211.383 171.858,211.411C171.439,211.438 170.938,211.468 170.353,211.501C170,211.524 169.647,211.57 169.294,211.642C168.942,211.714 168.627,211.841 168.352,212.023C168.076,212.205 167.853,212.455 167.682,212.775C167.511,213.095 167.425,213.52 167.425,214.049C167.425,214.81 167.684,215.381 168.203,215.761C168.721,216.141 169.41,216.332 170.27,216.332C170.711,216.332 171.12,216.274 171.494,216.158C171.869,216.042 172.203,215.885 172.495,215.687C172.787,215.488 173.03,215.262 173.223,215.008C173.416,214.755 173.557,214.49 173.645,214.214L173.678,214.214L173.678,215.323C173.678,215.642 173.769,215.86 173.951,215.976C174.133,216.092 174.345,216.15 174.588,216.15L175.084,216.15L175.084,215.819C174.974,215.83 174.855,215.838 174.728,215.844C174.602,215.849 174.483,215.838 174.373,215.811C174.262,215.783 174.174,215.731 174.108,215.654C174.042,215.576 174.009,215.455 174.009,215.29L174.009,209.88C173.998,209.417 173.915,209.031 173.761,208.722C173.606,208.414 173.402,208.163 173.149,207.97C172.895,207.777 172.6,207.642 172.264,207.565C171.927,207.487 171.572,207.449 171.197,207.449C170.667,207.449 170.207,207.52 169.815,207.664C169.424,207.807 169.093,208.006 168.823,208.259C168.553,208.513 168.346,208.813 168.203,209.161C168.059,209.508 167.977,209.88 167.955,210.277ZM173.678,211.154L173.678,212.726C173.678,213.145 173.604,213.553 173.455,213.95C173.306,214.347 173.085,214.697 172.793,215C172.501,215.303 172.14,215.549 171.71,215.736C171.279,215.924 170.789,216.017 170.237,216.017C169.774,216.017 169.385,215.96 169.071,215.844C168.757,215.728 168.5,215.579 168.302,215.397C168.103,215.215 167.963,215.006 167.88,214.769C167.797,214.531 167.756,214.292 167.756,214.049C167.756,213.597 167.828,213.23 167.971,212.949C168.114,212.668 168.307,212.447 168.55,212.287C168.793,212.127 169.071,212.017 169.385,211.956C169.7,211.896 170.022,211.854 170.353,211.832C170.684,211.81 171.023,211.794 171.37,211.783C171.718,211.772 172.04,211.744 172.338,211.7C172.636,211.656 172.901,211.592 173.132,211.51C173.364,211.427 173.535,211.309 173.645,211.154L173.678,211.154Z" style="fill:black;fill-rule:nonzero;"/>
                <rect x="174.935" y="204.339" width="0.331" height="11.811" style="fill:black;fill-rule:nonzero;"/>
                <path d="M176.92,206.01L176.92,204.339L176.589,204.339L176.589,206.01L176.92,206.01ZM176.92,216.15L176.92,207.647L176.589,207.647L176.589,216.15L176.92,216.15Z" style="fill:black;fill-rule:nonzero;"/>
            </g>
        </g>
    </g>
    <g transform="matrix(0.144795,0,0,0.144795,23.3561,14.8429)">
        <g id="thali-dish">
            <g>
                <g transform="matrix(6.90633,0,0,6.90633,-161.305,-102.51)">
                    <path d="M65.114,32.899C96.065,15.03 135.7,25.65 153.57,56.601C171.439,87.551 160.819,127.187 129.868,145.056C98.917,162.926 59.282,152.305 41.412,121.355C23.543,90.404 34.163,50.768 65.114,32.899ZM108.044,142.781C98.514,137.279 95.244,125.075 100.746,115.545C106.248,106.016 118.452,102.746 127.982,108.248C137.511,113.75 140.781,125.953 135.279,135.483C129.778,145.013 117.574,148.283 108.044,142.781ZM66.573,142.506C57.044,137.004 53.774,124.8 59.276,115.27C64.778,105.74 76.981,102.47 86.511,107.972C96.041,113.474 99.311,125.678 93.809,135.208C88.307,144.737 76.103,148.007 66.573,142.506ZM145.292,100.181C150.606,100.181 154.921,104.496 154.921,109.81C154.921,115.124 150.606,119.439 145.292,119.439C139.977,119.439 135.663,115.124 135.663,109.81C135.663,104.496 139.977,100.181 145.292,100.181ZM45.633,106.748C36.104,101.246 32.834,89.042 38.336,79.512C43.838,69.983 56.041,66.713 65.571,72.215C75.101,77.717 78.371,89.92 72.869,99.45C67.367,108.98 55.163,112.25 45.633,106.748ZM149.607,80.073C154.921,80.073 159.236,84.387 159.236,89.702C159.236,95.016 154.921,99.331 149.607,99.331C144.293,99.331 139.978,95.016 139.978,89.702C139.978,84.387 144.293,80.073 149.607,80.073ZM147.908,53.009C149.072,54.42 149.771,56.229 149.771,58.2C149.771,62.709 146.11,66.37 141.601,66.37C141.601,66.37 53.446,66.37 53.446,66.37C48.937,66.37 45.277,62.709 45.277,58.2C45.277,56.546 45.769,55.007 46.615,53.72L46.573,53.72C57.761,37.601 76.402,27.039 97.491,27.039C118.268,27.039 136.669,37.291 147.908,53.009Z" style="fill:black;"/>
                </g>
                <g>
                    <path d="M875.233,555.598C874.066,556.765 872.061,557.871 870.069,555.879L866.556,552.366C864.507,550.317 865.839,548.242 866.917,547.163L870.166,543.915C871.513,542.568 873.245,542.295 875.159,544.208L878.29,547.339C880.262,549.312 879.689,551.143 878.522,552.31L875.233,555.598ZM896.484,534.455L892.858,538.081C892.862,538.086 892.148,538.973 890.87,539.043C889.726,539.112 888.536,538.538 887.327,537.329C877.471,527.473 864.229,528.936 856.667,536.498C856.485,536.722 855.438,537.941 853.906,538.048C852.868,538.123 851.869,537.679 850.934,536.744L847.442,533.251C847.404,533.214 845.086,530.668 847.937,527.817C860.511,515.242 881.5,513.946 896.02,528.615C896.02,528.615 899.804,531.436 896.484,534.455ZM828.146,508.761C850.635,486.272 887.837,482.171 915.601,509.935C915.601,509.935 918.382,512.408 915.804,514.986L911.303,519.487C911.303,519.487 909.656,521.746 906.61,518.926C884.18,496.497 854.671,500.223 837.14,517.754C837.14,517.754 834.986,520.757 832.008,517.779L828.171,513.941C828.171,513.941 825.171,511.736 828.146,508.761Z" style="fill:black;"/>
                    <g transform="matrix(0.207614,1.60648e-14,-1.60904e-14,0.207614,243.99,358.164)">
                        <path d="M2904.75,1582.58L2953.3,1534.02L2904.79,1485.51L2904.75,1582.58ZM2852.91,1433.97L2747.96,1328.71L2778.37,1298.3L2862.01,1381.94L2862.01,1181.46L3014.07,1333.53L2913.64,1433.97L3014.07,1534.37L2862.01,1686.45L2862.01,1485.98L2778.37,1569.62L2747.96,1539.21L2852.91,1433.97ZM2904.75,1285.35L2953.3,1333.9L2904.79,1382.42L2904.75,1285.35Z" style="fill:black;"/>
                    </g>
                    <g transform="matrix(0.734752,0,0,0.734752,559.683,672.658)">
                        <path d="M232.727,244.364L191.273,244.364L194.182,209.455L173.818,209.455L170.909,244.364L85.091,244.364L82.182,209.455L61.818,209.455L64.727,244.364L23.273,244.364L0,93.091L58.182,0L197.818,0L256,93.091L232.727,244.364ZM186.182,46.545L148.779,46.545L151.273,64L104.727,64L107.221,46.545L69.818,46.545L46.545,93.091L58.182,186.182L197.818,186.182L209.455,93.091L186.182,46.545ZM165.818,155.287C162.605,155.287 160,145.597 160,133.644C160,121.69 162.605,112 165.818,112C169.031,112 171.636,121.69 171.636,133.644C171.636,145.597 169.031,155.287 165.818,155.287ZM92.364,157.091C89.151,157.091 86.545,147.401 86.545,135.447C86.545,123.494 89.151,113.804 92.364,113.804C95.577,113.804 98.182,123.494 98.182,135.447C98.182,147.401 95.577,157.091 92.364,157.091Z" style="fill:black;fill-rule:nonzero;"/>
                    </g>
                    <g transform="matrix(0.605118,0,0,0.605118,289.913,662.685)">
                        <path d="M18.752,0L0,91.459L53.782,142.202L18.839,204.491L89.94,329.677L167.725,329.677L239.131,204.491L203.886,142.202L255.845,91.459L238.739,0L165.599,97.409L92.372,97.409L18.752,0Z" style="fill:black;fill-rule:nonzero;"/>
                    </g>
                    <g transform="matrix(1.44742,0,0,1.44742,128.019,404.549)">
                        <path d="M109.055,86.491C109.055,74.814 101.163,71.703 84.547,69.507C67.759,67.286 66.053,66.14 66.053,62.208C66.053,58.963 67.498,54.63 79.933,54.63C91.04,54.63 95.133,57.023 96.816,64.511C96.964,65.216 97.607,65.732 98.335,65.732L105.351,65.732C105.787,65.732 106.2,65.544 106.495,65.233C106.791,64.902 106.949,64.475 106.908,64.031C105.822,51.133 97.252,45.123 79.933,45.123C64.517,45.123 55.324,51.627 55.324,62.536C55.324,74.37 64.472,77.638 79.265,79.101C96.964,80.833 98.338,83.42 98.338,86.904C98.338,92.947 93.49,95.524 82.101,95.524C67.794,95.524 64.648,91.931 63.593,84.815C63.472,84.052 62.821,83.492 62.04,83.492L55.05,83.492C54.184,83.492 53.488,84.183 53.488,85.049C53.488,94.157 58.444,105.017 82.101,105.017C99.232,105.017 109.055,98.27 109.055,86.491ZM65.402,148C63.426,148 61.461,147.484 59.732,146.483L41.681,135.802C38.988,134.294 40.303,133.761 41.192,133.451C44.788,132.204 45.515,131.916 49.353,129.739C49.753,129.515 50.282,129.601 50.695,129.841L64.562,138.076C65.065,138.354 65.774,138.354 66.237,138.076L120.3,106.872C120.802,106.584 121.125,106.004 121.125,105.408L121.125,43.017C121.125,42.406 120.802,41.837 120.287,41.526L66.246,10.35C65.747,10.058 65.084,10.058 64.581,10.35L10.553,41.536C10.028,41.837 9.696,42.425 9.696,43.017L9.696,105.408C9.696,106.004 10.028,106.57 10.549,106.852L25.359,115.41C33.394,119.427 38.314,114.696 38.314,109.941L38.314,48.341C38.314,47.47 39.015,46.783 39.886,46.783L46.74,46.783C47.598,46.783 48.307,47.47 48.307,48.341L48.307,109.941C48.307,120.667 42.466,126.817 32.299,126.817C29.175,126.817 26.715,126.817 19.846,123.432L5.669,115.27C2.168,113.246 0,109.46 0,105.408L0,43.017C0,38.963 2.168,35.179 5.669,33.163L59.732,1.923C63.153,-0.011 67.701,-0.011 71.095,1.923L125.152,33.163C128.655,35.188 130.83,38.963 130.83,43.017L130.83,105.408C130.83,109.46 128.655,113.232 125.152,115.27L71.095,146.483C69.367,147.484 67.405,148 65.402,148Z" style="fill:black;fill-rule:nonzero;"/>
                    </g>
                    <path d="M360.277,287.184L360.277,213.503L336.621,213.503L336.621,286.129C336.621,288.038 336.546,290.021 336.395,292.081C336.245,294.14 335.793,296.048 335.039,297.806C334.286,299.564 333.055,300.996 331.348,302.101C329.64,303.206 327.229,303.758 324.115,303.758C321.303,303.758 319.017,303.306 317.259,302.402C315.501,301.498 314.12,300.267 313.116,298.71C312.111,297.153 311.408,295.27 311.006,293.06C310.604,290.85 310.404,288.439 310.404,285.828L310.404,281.006L289.008,281.006L289.008,290.348C289.008,296.274 290.012,301.322 292.021,305.491C294.03,309.66 296.692,313.075 300.007,315.737C303.322,318.399 307.089,320.358 311.308,321.613C315.527,322.869 319.896,323.497 324.416,323.497C332.453,323.497 338.831,322.266 343.552,319.805C348.274,317.344 351.89,314.28 354.401,310.614C356.912,306.947 358.52,303.005 359.223,298.786C359.926,294.567 360.277,290.699 360.277,287.184ZM532.58,291.76C531.112,301.857 527.118,309.573 520.597,314.908C513.967,320.332 505.479,323.045 495.133,323.045C489.306,323.045 483.957,322.065 479.086,320.106C474.214,318.148 470.07,315.41 466.655,311.895C463.24,308.379 460.578,304.185 458.669,299.313C456.76,294.441 455.806,289.092 455.806,283.266C455.806,277.239 456.685,271.639 458.443,266.466C460.201,261.292 462.787,256.822 466.203,253.056C469.618,249.289 473.787,246.35 478.709,244.241C483.631,242.132 489.256,241.077 495.585,241.077C500.205,241.077 504.65,241.679 508.92,242.885C513.189,244.09 517.006,245.924 520.371,248.385C523.736,250.846 526.473,253.909 528.583,257.576C530.692,261.242 531.898,265.587 532.199,270.609L511.255,270.609C509.849,261.669 504.575,257.199 495.434,257.199C492.019,257.199 489.156,257.978 486.845,259.535C484.535,261.092 482.652,263.101 481.195,265.562C479.739,268.023 478.709,270.735 478.106,273.698C477.504,276.661 477.202,279.6 477.202,282.513C477.202,285.325 477.504,288.188 478.106,291.101C478.709,294.014 479.688,296.651 481.044,299.012C482.4,301.372 484.234,303.306 486.544,304.813C488.854,306.32 491.667,307.073 494.982,307.073C500.105,307.073 504.048,305.642 506.81,302.779C509.572,299.916 511.305,296.074 512.008,291.252L532.489,291.252C531.994,288.395 531.747,285.381 531.747,282.211C531.747,275.983 532.701,270.333 534.61,265.26C536.518,260.188 539.231,255.868 542.746,252.302C546.262,248.736 550.481,245.974 555.403,244.015C560.325,242.056 565.85,241.077 571.978,241.077C578.105,241.077 583.655,242.056 588.627,244.015C593.6,245.974 597.844,248.736 601.359,252.302C604.875,255.868 607.587,260.188 609.496,265.26C611.404,270.333 612.359,275.983 612.359,282.211C612.359,288.439 611.404,294.065 609.496,299.087C607.587,304.11 604.875,308.404 601.359,311.97C597.844,315.536 593.6,318.273 588.627,320.182C583.655,322.09 578.105,323.045 571.978,323.045C565.85,323.045 560.325,322.09 555.403,320.182C550.481,318.273 546.262,315.536 542.746,311.97C539.231,308.404 536.518,304.11 534.61,299.087C533.73,296.773 533.054,294.331 532.58,291.76ZM665.849,255.686C666.605,254.719 667.409,253.792 668.26,252.905C671.775,249.238 675.969,246.35 680.841,244.241C685.713,242.132 691.112,241.077 697.039,241.077C703.669,241.077 709.444,242.358 714.367,244.919C719.289,247.481 723.332,250.921 726.496,255.24C729.66,259.56 731.945,264.482 733.352,270.007C734.758,275.531 735.26,281.307 734.858,287.334L678.656,287.334C678.958,294.265 680.716,299.288 683.93,302.402C687.144,305.516 691.765,307.073 697.792,307.073C702.112,307.073 705.828,305.993 708.942,303.833C712.056,301.674 713.965,299.388 714.668,296.978L733.502,296.978C730.489,306.32 725.868,313 719.64,317.018C713.412,321.036 705.878,323.045 697.039,323.045C690.911,323.045 685.386,322.065 680.464,320.106C675.542,318.148 671.374,315.36 667.958,311.744C664.543,308.128 661.906,303.808 660.048,298.786C658.189,293.763 657.26,288.238 657.26,282.211C657.26,276.385 658.215,270.961 660.123,265.938C660.752,264.284 661.468,262.703 662.271,261.196L662.233,261.192C660.826,261.041 659.47,260.966 658.164,260.966C654.247,260.966 650.932,261.619 648.22,262.925C645.507,264.231 643.323,266.014 641.665,268.274C640.008,270.534 638.828,273.171 638.124,276.184C637.421,279.198 637.07,282.463 637.07,285.978L637.07,321.086L615.674,321.086L615.674,243.186L636.015,243.186L636.015,257.651L636.316,257.651C637.321,255.24 638.677,253.005 640.385,250.946C642.092,248.887 644.051,247.129 646.261,245.672C648.471,244.216 650.831,243.086 653.343,242.282C655.854,241.479 658.466,241.077 661.178,241.077C662.584,241.077 664.141,241.328 665.849,241.83L665.849,255.686ZM553.143,282.211C553.143,279.097 553.444,276.034 554.047,273.02C554.65,270.007 555.679,267.345 557.136,265.034C558.592,262.724 560.526,260.84 562.937,259.384C565.348,257.927 568.361,257.199 571.978,257.199C575.594,257.199 578.632,257.927 581.093,259.384C583.554,260.84 585.513,262.724 586.97,265.034C588.426,267.345 589.456,270.007 590.059,273.02C590.661,276.034 590.963,279.097 590.963,282.211C590.963,285.325 590.661,288.364 590.059,291.327C589.456,294.291 588.426,296.953 586.97,299.313C585.513,301.674 583.554,303.557 581.093,304.963C578.632,306.37 575.594,307.073 571.978,307.073C568.361,307.073 565.348,306.37 562.937,304.963C560.526,303.557 558.592,301.674 557.136,299.313C555.679,296.953 554.65,294.291 554.047,291.327C553.444,288.364 553.143,285.325 553.143,282.211ZM713.462,273.774L678.656,273.774C678.757,272.267 679.083,270.559 679.636,268.651C680.188,266.742 681.142,264.934 682.499,263.226C683.855,261.519 685.663,260.087 687.923,258.932C690.183,257.777 693.021,257.199 696.436,257.199C701.66,257.199 705.552,258.605 708.113,261.418C710.675,264.231 712.458,268.349 713.462,273.774ZM396.892,264.733L359.373,321.086L385.892,321.086L409.85,283.869L433.355,321.086L461.532,321.086L424.013,264.884L458.518,213.503L432.602,213.503L410.754,247.857L389.659,213.503L362.236,213.503L396.892,264.733Z" style="fill:black;"/>
                </g>
            </g>
        </g>
    </g>
</svg>
