<?xml version="1.0" standalone="no"?>
<!DOCTYPE svg PUBLIC "-//W3C//DTD SVG 1.1//EN" "http://www.w3.org/Graphics/SVG/1.1/DTD/svg11.dtd">
<svg width="100%" height="100%" viewBox="0 0 1024 1024" version="1.1" xmlns="http://www.w3.org/2000/svg" xmlns:xlink="http://www.w3.org/1999/xlink" xml:space="preserve" style="fill-rule:evenodd;clip-rule:evenodd;stroke-linejoin:round;stroke-miterlimit:1.41421;">
    <g id="bg" transform="matrix(3.39073,0,0,5.62637,0,0)">
        <rect x="0" y="0" width="302" height="182" style="fill:rgb(202,0,70);"/>
    </g>
    <g id="mono">
        <path d="M288.394,124.702C502.149,1.291 775.886,74.638 899.298,288.394C1022.71,502.149 949.362,775.886 735.606,899.298C521.851,1022.71 248.114,949.362 124.702,735.606C1.291,521.851 74.638,248.114 288.394,124.702ZM584.883,883.581C519.068,845.582 496.485,761.299 534.483,695.484C572.481,629.669 656.765,607.085 722.58,645.084C788.395,683.082 810.978,767.365 772.98,833.18C734.982,898.995 650.698,921.579 584.883,883.581ZM298.473,881.68C232.658,843.682 210.074,759.399 248.073,693.584C286.071,627.769 370.354,605.185 436.169,643.183C501.984,681.182 524.568,765.465 486.569,831.28C448.571,897.095 364.288,919.679 298.473,881.68ZM842.128,589.373C878.83,589.373 908.628,619.171 908.628,655.873C908.628,692.576 878.83,722.373 842.128,722.373C805.425,722.373 775.628,692.576 775.628,655.873C775.628,619.171 805.425,589.373 842.128,589.373ZM153.854,634.726C88.039,596.728 65.455,512.444 103.454,446.629C141.452,380.814 225.735,358.231 291.55,396.229C357.365,434.227 379.949,518.511 341.951,584.326C303.952,650.141 219.669,672.724 153.854,634.726ZM871.93,450.5C908.632,450.5 938.43,480.298 938.43,517C938.43,553.702 908.632,583.5 871.93,583.5C835.227,583.5 805.43,553.702 805.43,517C805.43,480.298 835.227,450.5 871.93,450.5ZM860.194,263.584C868.233,273.335 873.063,285.827 873.063,299.439C873.063,330.579 847.781,355.86 816.641,355.86C816.641,355.86 207.812,355.86 207.812,355.86C176.672,355.86 151.39,330.579 151.39,299.439C151.39,288.018 154.79,277.386 160.633,268.5L160.342,268.5C237.608,157.178 366.352,84.23 512,84.23C655.493,84.23 782.578,155.036 860.194,263.584Z" style="fill:rgb(235,251,245);"/>
    </g>
</svg>
