<?xml version="1.0" standalone="no"?>
<!DOCTYPE svg PUBLIC "-//W3C//DTD SVG 1.1//EN" "http://www.w3.org/Graphics/SVG/1.1/DTD/svg11.dtd">
<svg width="100%" height="100%" viewBox="0 0 1024 1024" version="1.1" xmlns="http://www.w3.org/2000/svg" xmlns:xlink="http://www.w3.org/1999/xlink" xml:space="preserve" style="fill-rule:evenodd;clip-rule:evenodd;stroke-linejoin:round;stroke-miterlimit:1.41421;">
    <g id="Layer1">
        <g>
            <g transform="matrix(0.985842,0,0,0.985842,7.24866,7.24866)">
                <path d="M512,45.707C769.354,45.707 978.293,254.646 978.293,512C978.293,769.354 769.354,978.293 512,978.293C254.646,978.293 45.707,769.354 45.707,512C45.707,254.646 254.646,45.707 512,45.707ZM512,53.504C765.051,53.504 970.496,258.949 970.496,512C970.496,765.051 765.051,970.496 512,970.496C258.949,970.496 53.504,765.051 53.504,512C53.504,258.949 258.949,53.504 512,53.504Z" style="fill:black;"/>
            </g>
            <g transform="matrix(1.00407,0,0,1.00407,-2.08352,-2.08352)">
                <path d="M512,66.6C757.823,66.6 957.4,266.177 957.4,512C957.4,757.823 757.823,957.4 512,957.4C266.177,957.4 66.6,757.823 66.6,512C66.6,266.177 266.177,66.6 512,66.6ZM512,78.35C751.338,78.35 945.65,272.662 945.65,512C945.65,751.338 751.338,945.65 512,945.65C272.662,945.65 78.35,751.338 78.35,512C78.35,272.662 272.662,78.35 512,78.35Z" style="fill:black;"/>
            </g>
            <g transform="matrix(0.989362,0,0,0.989362,8.72461,24.6358)">
                <g transform="matrix(0.595712,0.816546,-0.816546,0.595712,625.514,156.391)">
                    <path d="M160.152,582.745L240.238,582.745L240.238,594.698L207.402,594.698L207.402,687.721L193.129,687.721L193.129,594.698L160.152,594.698L160.152,582.745Z" style="fill:black;fill-rule:nonzero;"/>
                </g>
                <g transform="matrix(0.900203,0.459625,-0.459625,0.900203,408.929,-40.9342)">
                    <path d="M294.686,718.644L308.959,718.644L308.959,758.863L347.842,758.863L347.842,718.644L362.116,718.644L362.116,823.62L347.842,823.62L347.842,770.816L308.959,770.816L308.959,823.62L294.686,823.62L294.686,718.644Z" style="fill:black;fill-rule:nonzero;"/>
                </g>
                <g transform="matrix(1.01075,0.000200342,-0.000200342,1.01075,-0.962796,-1.05985)">
                    <path d="M504.288,794.194L489.311,847.912L519.265,847.912L504.288,794.194ZM495.71,781.678L512.936,781.678L545.069,886.655L530.374,886.655L522.64,859.303L485.866,859.303L478.272,886.655L463.577,886.655L495.71,781.678Z" style="fill:black;fill-rule:nonzero;"/>
                </g>
                <g transform="matrix(0.895269,-0.469163,0.469163,0.895269,-331.57,402.175)">
                    <path d="M661.851,758.512L676.124,758.512L676.124,851.535L726.82,851.535L726.82,863.488L661.851,863.488L661.851,758.512Z" style="fill:black;fill-rule:nonzero;"/>
                </g>
                <g transform="matrix(0.595712,-0.816546,0.816546,0.595712,-287.431,967.486)">
                    <path d="M815.038,652.725L873.327,652.725L873.327,664.679L851.319,664.679L851.319,745.749L873.327,745.749L873.327,757.702L815.038,757.702L815.038,745.749L837.046,745.749L837.046,664.679L815.038,664.679L815.038,652.725Z" style="fill:black;fill-rule:nonzero;"/>
                </g>
            </g>
            <g transform="matrix(0.989362,0,0,0.989362,8.72461,24.6358)">
                <g transform="matrix(0.595712,-0.816546,0.816546,0.595712,-186.673,338.17)">
                    <path d="M241.585,243.354L321.67,243.354L321.67,255.307L288.835,255.307L288.835,348.331L274.561,348.331L274.561,255.307L241.585,255.307L241.585,243.354Z" style="fill:black;fill-rule:nonzero;"/>
                </g>
                <g transform="matrix(0.900203,-0.459625,0.459625,0.900203,-76.1565,177.959)">
                    <path d="M340.523,137.821L354.797,137.821L354.797,178.04L393.68,178.04L393.68,137.821L407.953,137.821L407.953,242.798L393.68,242.798L393.68,189.993L354.797,189.993L354.797,242.798L340.523,242.798L340.523,137.821Z" style="fill:black;fill-rule:nonzero;"/>
                </g>
                <g transform="matrix(1.01075,-0.000200342,0.000200342,1.01075,-1.17865,-0.875153)">
                    <path d="M504.308,98.327L489.331,152.046L519.285,152.046L504.308,98.327ZM495.73,85.812L512.956,85.812L545.089,190.788L530.394,190.788L522.66,163.437L485.886,163.437L478.292,190.788L463.597,190.788L495.73,85.812Z" style="fill:black;fill-rule:nonzero;"/>
                </g>
                <g transform="matrix(0.895269,0.469163,-0.469163,0.895269,163.12,-259.062)">
                    <path d="M615.062,97.461L629.336,97.461L629.336,190.485L680.031,190.485L680.031,202.438L615.062,202.438L615.062,97.461Z" style="fill:black;fill-rule:nonzero;"/>
                </g>
                <g transform="matrix(0.595712,0.816546,-0.816546,0.595712,524.756,-472.924)">
                    <path d="M733.606,173.373L791.895,173.373L791.895,185.326L769.887,185.326L769.887,266.397L791.895,266.397L791.895,278.35L733.606,278.35L733.606,266.397L755.614,266.397L755.614,185.326L733.606,185.326L733.606,173.373Z" style="fill:black;fill-rule:nonzero;"/>
                </g>
            </g>
        </g>
        <g transform="matrix(1,0,0,1,0,-7.03782)">
            <path d="M943.731,635.889L80.269,635.889C70.162,598.642 64.787,559.463 64.787,519.038C64.787,478.613 70.162,439.433 80.269,402.186L943.731,402.186C953.838,439.433 959.213,478.613 959.213,519.038C959.213,559.463 953.838,598.642 943.731,635.889Z" style="fill:black;"/>
        </g>
    </g>
    <g id="Layer2">
        <g transform="matrix(1,0,0,1,343.362,26.0355)">
            <path d="M-203.818,485.62L-203.818,443.572L-170.122,443.572C-163.306,443.572 -157.786,445.3 -153.562,448.756C-149.338,452.212 -147.226,457.492 -147.226,464.596C-147.226,471.7 -149.338,476.98 -153.562,480.436C-157.786,483.892 -163.306,485.62 -170.122,485.62L-203.818,485.62ZM-213.61,435.22L-213.61,538.036L-203.818,538.036L-203.818,493.972L-167.962,493.972C-163.354,493.972 -159.178,493.324 -155.434,492.028C-151.69,490.732 -148.474,488.812 -145.786,486.268C-143.098,483.724 -141.034,480.628 -139.594,476.98C-138.154,473.332 -137.434,469.204 -137.434,464.596C-137.434,459.988 -138.154,455.86 -139.594,452.212C-141.034,448.564 -143.098,445.468 -145.786,442.924C-148.474,440.38 -151.69,438.46 -155.434,437.164C-159.178,435.868 -163.354,435.22 -167.962,435.22L-213.61,435.22Z" style="fill:white;fill-rule:nonzero;"/>
            <path d="M-114.25,486.628C-114.25,480.964 -113.506,475.444 -112.018,470.068C-110.53,464.692 -108.226,459.868 -105.106,455.596C-101.986,451.324 -97.978,447.892 -93.082,445.3C-88.186,442.708 -82.33,441.412 -75.514,441.412C-68.698,441.412 -62.866,442.708 -58.018,445.3C-53.17,447.892 -49.186,451.324 -46.066,455.596C-42.946,459.868 -40.642,464.692 -39.154,470.068C-37.666,475.444 -36.922,480.964 -36.922,486.628C-36.922,492.196 -37.666,497.692 -39.154,503.116C-40.642,508.54 -42.946,513.388 -46.066,517.66C-49.186,521.932 -53.17,525.364 -58.018,527.956C-62.866,530.548 -68.698,531.844 -75.514,531.844C-82.33,531.844 -88.186,530.548 -93.082,527.956C-97.978,525.364 -101.986,521.932 -105.106,517.66C-108.226,513.388 -110.53,508.54 -112.018,503.116C-113.506,497.692 -114.25,492.196 -114.25,486.628ZM-124.042,486.628C-124.042,493.732 -123.034,500.5 -121.018,506.932C-119.002,513.364 -115.978,519.028 -111.946,523.924C-107.914,528.82 -102.85,532.732 -96.754,535.66C-90.658,538.588 -83.578,540.052 -75.514,540.052C-67.45,540.052 -60.394,538.588 -54.346,535.66C-48.298,532.732 -43.258,528.82 -39.226,523.924C-35.194,519.028 -32.17,513.364 -30.154,506.932C-28.138,500.5 -27.13,493.732 -27.13,486.628C-27.13,479.524 -28.138,472.756 -30.154,466.324C-32.17,459.892 -35.194,454.204 -39.226,449.26C-43.258,444.316 -48.298,440.38 -54.346,437.452C-60.394,434.524 -67.45,433.06 -75.514,433.06C-83.578,433.06 -90.658,434.524 -96.754,437.452C-102.85,440.38 -107.914,444.316 -111.946,449.26C-115.978,454.204 -119.002,459.892 -121.018,466.324C-123.034,472.756 -124.042,479.524 -124.042,486.628Z" style="fill:white;fill-rule:nonzero;"/>
            <path d="M-2.938,504.196L-12.73,504.196C-13.018,510.532 -12.178,515.956 -10.21,520.468C-8.242,524.98 -5.434,528.676 -1.786,531.556C1.862,534.436 6.278,536.572 11.462,537.964C16.646,539.356 22.262,540.052 28.31,540.052C34.358,540.052 39.542,539.5 43.862,538.396C48.182,537.292 51.806,535.852 54.734,534.076C57.662,532.3 59.966,530.308 61.646,528.1C63.326,525.892 64.622,523.708 65.534,521.548C66.446,519.388 67.022,517.348 67.262,515.428C67.502,513.508 67.622,511.972 67.622,510.82C67.622,506.596 66.926,502.996 65.534,500.02C64.142,497.044 62.222,494.524 59.774,492.46C57.326,490.396 54.494,488.668 51.278,487.276C48.062,485.884 44.63,484.708 40.982,483.748L15.926,477.556C13.814,477.076 11.822,476.452 9.95,475.684C8.078,474.916 6.422,473.908 4.982,472.66C3.542,471.412 2.414,469.9 1.598,468.124C0.782,466.348 0.374,464.26 0.374,461.86C0.374,458.02 1.094,454.804 2.534,452.212C3.974,449.62 5.87,447.532 8.222,445.948C10.574,444.364 13.31,443.212 16.43,442.492C19.55,441.772 22.79,441.412 26.15,441.412C29.798,441.412 33.278,441.916 36.59,442.924C39.902,443.932 42.83,445.42 45.374,447.388C47.918,449.356 49.982,451.804 51.566,454.732C53.15,457.66 54.038,461.092 54.23,465.028L64.022,465.028C64.022,459.748 62.99,455.116 60.926,451.132C58.862,447.148 56.102,443.812 52.646,441.124C49.19,438.436 45.158,436.42 40.55,435.076C35.942,433.732 31.094,433.06 26.006,433.06C18.806,433.06 12.902,434.092 8.294,436.156C3.686,438.22 0.062,440.74 -2.578,443.716C-5.218,446.692 -7.018,449.86 -7.978,453.22C-8.938,456.58 -9.418,459.508 -9.418,462.004C-9.418,466.036 -8.77,469.444 -7.474,472.228C-6.178,475.012 -4.474,477.364 -2.362,479.284C-0.25,481.204 2.222,482.74 5.054,483.892C7.886,485.044 10.79,486.004 13.766,486.772L36.662,492.388C39.062,492.964 41.51,493.708 44.006,494.62C46.502,495.532 48.782,496.708 50.846,498.148C52.91,499.588 54.59,501.364 55.886,503.476C57.182,505.588 57.83,508.084 57.83,510.964C57.83,514.708 56.918,517.9 55.094,520.54C53.27,523.18 50.99,525.34 48.254,527.02C45.518,528.7 42.566,529.924 39.398,530.692C36.23,531.46 33.302,531.844 30.614,531.844C25.91,531.844 21.494,531.388 17.366,530.476C13.238,529.564 9.662,528.052 6.638,525.94C3.614,523.828 1.238,520.996 -0.49,517.444C-2.218,513.892 -3.034,509.476 -2.938,504.196Z" style="fill:white;fill-rule:nonzero;"/>
            <path d="M76.55,435.22L76.55,443.572L112.262,443.572L112.262,538.036L122.054,538.036L122.054,443.572L157.91,443.572L157.91,435.22L76.55,435.22Z" style="fill:white;fill-rule:nonzero;"/>
            <path d="M247.046,466.324L256.838,466.324C256.166,460.948 254.558,456.196 252.014,452.068C249.47,447.94 246.302,444.46 242.51,441.628C238.718,438.796 234.494,436.66 229.838,435.22C225.182,433.78 220.406,433.06 215.51,433.06C207.446,433.06 200.366,434.524 194.27,437.452C188.174,440.38 183.11,444.316 179.078,449.26C175.046,454.204 172.022,459.892 170.006,466.324C167.99,472.756 166.982,479.524 166.982,486.628C166.982,493.732 167.99,500.5 170.006,506.932C172.022,513.364 175.046,519.028 179.078,523.924C183.11,528.82 188.174,532.732 194.27,535.66C200.366,538.588 207.446,540.052 215.51,540.052C221.558,540.052 227.054,539.092 231.998,537.172C236.942,535.252 241.238,532.516 244.886,528.964C248.534,525.412 251.51,521.092 253.814,516.004C256.118,510.916 257.606,505.204 258.278,498.868L248.486,498.868C248.006,503.476 246.902,507.772 245.174,511.756C243.446,515.74 241.19,519.22 238.406,522.196C235.622,525.172 232.31,527.524 228.47,529.252C224.63,530.98 220.31,531.844 215.51,531.844C208.694,531.844 202.838,530.548 197.942,527.956C193.046,525.364 189.038,521.932 185.918,517.66C182.798,513.388 180.494,508.54 179.006,503.116C177.518,497.692 176.774,492.196 176.774,486.628C176.774,480.964 177.518,475.444 179.006,470.068C180.494,464.692 182.798,459.868 185.918,455.596C189.038,451.324 193.046,447.892 197.942,445.3C202.838,442.708 208.694,441.412 215.51,441.412C219.254,441.412 222.83,441.964 226.238,443.068C229.646,444.172 232.766,445.78 235.598,447.892C238.43,450.004 240.83,452.62 242.798,455.74C244.766,458.86 246.182,462.388 247.046,466.324Z" style="fill:white;fill-rule:nonzero;"/>
            <path d="M292.118,497.716L312.71,445.012L332.582,497.716L292.118,497.716ZM307.67,435.22L266.342,538.036L276.71,538.036L289.094,506.068L335.894,506.068L348.422,538.036L358.934,538.036L318.614,435.22L307.67,435.22Z" style="fill:white;fill-rule:nonzero;"/>
            <path d="M382.406,484.036L382.406,443.572L418.982,443.572C426.47,443.572 432.038,445.396 435.686,449.044C439.334,452.692 441.158,457.684 441.158,464.02C441.158,467.188 440.558,469.996 439.358,472.444C438.158,474.892 436.55,476.98 434.534,478.708C432.518,480.436 430.166,481.756 427.478,482.668C424.79,483.58 421.958,484.036 418.982,484.036L382.406,484.036ZM372.614,435.22L372.614,538.036L382.406,538.036L382.406,492.388L419.558,492.388C424.166,492.196 427.79,492.964 430.43,494.692C433.07,496.42 435.086,498.7 436.478,501.532C437.87,504.364 438.782,507.58 439.214,511.18C439.646,514.78 439.958,518.404 440.15,522.052C440.246,523.108 440.342,524.356 440.438,525.796C440.534,527.236 440.654,528.7 440.798,530.188C440.942,531.676 441.182,533.116 441.518,534.508C441.854,535.9 442.31,537.076 442.886,538.036L453.686,538.036C452.63,536.788 451.79,535.036 451.166,532.78C450.542,530.524 450.086,528.124 449.798,525.58C449.51,523.036 449.318,520.516 449.222,518.02C449.126,515.524 449.03,513.412 448.934,511.684C448.742,508.612 448.334,505.756 447.71,503.116C447.086,500.476 446.078,498.148 444.686,496.132C443.294,494.116 441.494,492.46 439.286,491.164C437.078,489.868 434.294,488.98 430.934,488.5L430.934,488.212C437.558,486.868 442.55,483.796 445.91,478.996C449.27,474.196 450.95,468.532 450.95,462.004C450.95,457.396 450.11,453.388 448.43,449.98C446.75,446.572 444.494,443.788 441.662,441.628C438.83,439.468 435.518,437.86 431.726,436.804C427.934,435.748 423.926,435.22 419.702,435.22L372.614,435.22Z" style="fill:white;fill-rule:nonzero;"/>
            <path d="M472.982,435.22L472.982,538.036L508.55,538.036C524.198,537.652 535.982,533.26 543.902,524.86C551.822,516.46 555.782,503.716 555.782,486.628C555.782,469.54 551.822,456.796 543.902,448.396C535.982,439.996 524.198,435.604 508.55,435.22L472.982,435.22ZM482.774,529.684L482.774,443.572L503.654,443.572C511.046,443.572 517.406,444.364 522.734,445.948C528.062,447.532 532.454,450.052 535.91,453.508C539.366,456.964 541.91,461.428 543.542,466.9C545.174,472.372 545.99,478.948 545.99,486.628C545.99,494.308 545.174,500.884 543.542,506.356C541.91,511.828 539.366,516.292 535.91,519.748C532.454,523.204 528.062,525.724 522.734,527.308C517.406,528.892 511.046,529.684 503.654,529.684L482.774,529.684Z" style="fill:white;fill-rule:nonzero;"/>
        </g>
        <g transform="matrix(0.2371,0,0,0.2371,499.992,695.274)">
            <path d="M-210.04,64.944L-210.04,52.652L-292.484,52.652C-291.636,47.706 -289.517,43.15 -286.126,38.981C-282.735,34.813 -278.814,30.963 -274.363,27.431C-269.913,23.898 -265.285,20.684 -260.481,17.788C-255.677,14.891 -251.509,12.242 -247.977,9.84C-243.032,6.731 -238.334,3.376 -233.883,-0.227C-229.432,-3.83 -225.476,-7.751 -222.014,-11.99C-218.553,-16.229 -215.797,-20.891 -213.749,-25.978C-211.7,-31.064 -210.676,-36.716 -210.676,-42.933C-210.676,-49.856 -211.841,-55.932 -214.173,-61.16C-216.504,-66.388 -219.754,-70.732 -223.922,-74.194C-228.09,-77.656 -232.965,-80.27 -238.546,-82.036C-244.127,-83.802 -250.167,-84.685 -256.666,-84.685C-264.72,-84.685 -271.749,-83.378 -277.754,-80.764C-283.759,-78.15 -288.74,-74.512 -292.696,-69.849C-296.652,-65.187 -299.584,-59.641 -301.492,-53.212C-303.399,-46.783 -304.282,-39.754 -304.141,-32.124L-290.789,-32.124C-290.93,-37.635 -290.4,-42.862 -289.199,-47.808C-287.998,-52.753 -286.055,-57.133 -283.371,-60.948C-280.686,-64.763 -277.189,-67.801 -272.88,-70.061C-268.57,-72.322 -263.378,-73.452 -257.302,-73.452C-252.781,-73.452 -248.507,-72.781 -244.48,-71.439C-240.453,-70.097 -236.921,-68.119 -233.883,-65.505C-230.845,-62.891 -228.443,-59.712 -226.677,-55.967C-224.911,-52.223 -224.028,-47.949 -224.028,-43.145C-224.028,-37.211 -225.052,-32.089 -227.101,-27.779C-229.15,-23.47 -232.223,-19.267 -236.32,-15.169C-240.418,-11.072 -245.045,-7.221 -250.202,-3.618C-255.359,-0.015 -260.552,3.517 -265.78,6.979C-271.008,10.44 -276.094,14.043 -281.039,17.788C-285.985,21.532 -290.435,25.665 -294.392,30.186C-298.348,34.707 -301.527,39.794 -303.929,45.446C-306.331,51.097 -307.603,57.597 -307.744,64.944L-210.04,64.944Z" style="fill:black;fill-rule:nonzero;"/>
            <path d="M-51.721,-84.685C-62.459,-84.685 -71.219,-82.318 -78.002,-77.585C-84.784,-72.852 -90.047,-66.812 -93.791,-59.464C-97.535,-52.117 -100.079,-43.922 -101.421,-34.879C-102.763,-25.837 -103.434,-16.935 -103.434,-8.175C-103.434,0.444 -102.763,9.275 -101.421,18.317C-100.079,27.36 -97.535,35.555 -93.791,42.902C-90.047,50.25 -84.784,56.255 -78.002,60.917C-71.219,65.58 -62.459,67.911 -51.721,67.911C-40.842,67.911 -32.046,65.58 -25.335,60.917C-18.623,56.255 -13.395,50.25 -9.651,42.902C-5.907,35.555 -3.364,27.36 -2.021,18.317C-0.679,9.275 -0.008,0.373 -0.008,-8.387C-0.008,-17.006 -0.679,-25.837 -2.021,-34.879C-3.364,-43.922 -5.907,-52.117 -9.651,-59.464C-13.395,-66.812 -18.623,-72.852 -25.335,-77.585C-32.046,-82.318 -40.842,-84.685 -51.721,-84.685ZM-51.721,-73.452C-43.243,-73.452 -36.461,-71.262 -31.375,-66.882C-26.288,-62.502 -22.438,-57.062 -19.824,-50.563C-17.21,-44.063 -15.479,-36.999 -14.632,-29.369C-13.784,-21.739 -13.36,-14.745 -13.36,-8.387C-13.36,-1.887 -13.784,5.142 -14.632,12.701C-15.479,20.26 -17.21,27.325 -19.824,33.895C-22.438,40.465 -26.288,45.94 -31.375,50.32C-36.461,54.7 -43.243,56.89 -51.721,56.89C-60.199,56.89 -66.981,54.7 -72.067,50.32C-77.154,45.94 -81.004,40.465 -83.618,33.895C-86.232,27.325 -87.963,20.26 -88.81,12.701C-89.658,5.142 -90.082,-1.887 -90.082,-8.387C-90.082,-14.745 -89.658,-21.739 -88.81,-29.369C-87.963,-36.999 -86.232,-44.063 -83.618,-50.563C-81.004,-57.062 -77.154,-62.502 -72.067,-66.882C-66.981,-71.262 -60.199,-73.452 -51.721,-73.452Z" style="fill:black;fill-rule:nonzero;"/>
            <path d="M114.651,-54.802L114.651,-45.264L153.86,-45.264L153.86,64.944L167.212,64.944L167.212,-83.413L156.403,-83.413C155.414,-76.631 153.754,-71.368 151.423,-67.624C149.091,-63.88 146.195,-61.089 142.733,-59.252C139.272,-57.416 135.174,-56.25 130.441,-55.755C125.707,-55.261 120.444,-54.943 114.651,-54.802Z" style="fill:black;fill-rule:nonzero;"/>
            <path d="M319.809,22.556L306.456,22.556C306.598,29.621 307.94,35.979 310.483,41.631C313.027,47.282 316.453,52.051 320.762,55.937C325.072,59.822 330.158,62.789 336.022,64.838C341.886,66.887 348.279,67.911 355.203,67.911C362.267,67.911 368.943,66.675 375.231,64.202C381.518,61.73 386.993,58.268 391.656,53.817C396.319,49.367 399.992,44.068 402.677,37.922C405.361,31.776 406.704,25.099 406.704,17.894C406.704,10.405 405.538,3.517 403.207,-2.771C400.875,-9.058 397.555,-14.463 393.246,-18.984C388.936,-23.505 383.708,-27.038 377.562,-29.581C371.416,-32.124 364.528,-33.396 356.898,-33.396C350.964,-33.396 345.171,-32.195 339.519,-29.793C333.867,-27.391 329.205,-24 325.531,-19.62L325.107,-20.044L334.644,-69.214L399.498,-69.214L399.498,-81.506L325.319,-81.506L310.907,-4.572L322.352,-4.572C326.026,-10.224 330.759,-14.569 336.552,-17.606C342.345,-20.644 348.632,-22.163 355.414,-22.163C360.925,-22.163 366.011,-21.174 370.674,-19.196C375.337,-17.218 379.328,-14.498 382.649,-11.036C385.969,-7.575 388.583,-3.512 390.49,1.15C392.398,5.813 393.352,10.9 393.352,16.41C393.352,21.779 392.504,26.901 390.808,31.776C389.113,36.65 386.64,40.96 383.39,44.704C380.141,48.448 376.255,51.415 371.734,53.605C367.212,55.795 362.055,56.89 356.262,56.89C351.176,56.89 346.442,56.078 342.062,54.453C337.682,52.828 333.867,50.497 330.618,47.459C327.368,44.421 324.789,40.783 322.882,36.544C320.974,32.305 319.95,27.643 319.809,22.556Z" style="fill:black;fill-rule:nonzero;"/>
        </g>
    </g>
</svg>
