<?xml version="1.0" standalone="no"?>
<!DOCTYPE svg PUBLIC "-//W3C//DTD SVG 1.1//EN" "http://www.w3.org/Graphics/SVG/1.1/DTD/svg11.dtd">
<svg width="100%" height="100%" viewBox="0 0 480 180" version="1.1" xmlns="http://www.w3.org/2000/svg" xmlns:xlink="http://www.w3.org/1999/xlink" xml:space="preserve" style="fill-rule:evenodd;clip-rule:evenodd;stroke-linejoin:round;stroke-miterlimit:1.41421;">
    <g id="bg" transform="matrix(1.69536,0,0,2.81319,-16,-166)">
        <rect x="0" y="0" width="302" height="182" style="fill:rgb(235,251,245);"/>
        <rect x="0" y="0" width="302" height="182" style="fill:rgb(202,0,70);"/>
    </g>
    <g transform="matrix(10.6285,0,0,10.6285,-1454.51,-2145.54)">
        <g id="logo">
            <g>
                <path d="M151.413,204.67L155.647,204.67L155.647,216.15L155.978,216.15L155.978,204.67L160.229,204.67L160.229,204.339L151.413,204.339L151.413,204.67Z" style="fill:rgb(235,251,245);fill-rule:nonzero;"/>
                <path d="M160.196,204.339L160.196,216.15L160.527,216.15L160.527,211.336C160.527,210.862 160.593,210.41 160.726,209.98C160.858,209.55 161.054,209.172 161.313,208.847C161.572,208.521 161.895,208.262 162.281,208.069C162.667,207.876 163.113,207.78 163.621,207.78C163.984,207.78 164.329,207.832 164.654,207.937C164.98,208.041 165.266,208.207 165.515,208.433C165.763,208.659 165.958,208.946 166.102,209.293C166.245,209.641 166.317,210.062 166.317,210.559L166.317,216.15L166.648,216.15L166.648,210.509C166.648,210.013 166.573,209.574 166.424,209.194C166.276,208.813 166.066,208.494 165.796,208.234C165.526,207.975 165.206,207.78 164.836,207.647C164.467,207.515 164.062,207.449 163.621,207.449C163.201,207.449 162.821,207.507 162.479,207.622C162.137,207.738 161.837,207.901 161.578,208.11C161.318,208.32 161.103,208.563 160.932,208.838C160.762,209.114 160.637,209.417 160.56,209.748L160.527,209.748L160.527,204.339L160.196,204.339Z" style="fill:rgb(235,251,245);fill-rule:nonzero;"/>
                <path d="M167.955,210.277L168.285,210.277C168.34,209.483 168.616,208.869 169.112,208.433C169.609,207.997 170.303,207.78 171.197,207.78C171.759,207.78 172.206,207.854 172.537,208.003C172.867,208.152 173.118,208.342 173.289,208.574C173.46,208.805 173.568,209.059 173.612,209.335C173.656,209.61 173.678,209.875 173.678,210.129C173.678,210.448 173.615,210.694 173.488,210.865C173.361,211.036 173.162,211.162 172.892,211.245C172.622,211.328 172.277,211.383 171.858,211.411C171.439,211.438 170.938,211.468 170.353,211.501C170,211.524 169.647,211.57 169.294,211.642C168.942,211.714 168.627,211.841 168.352,212.023C168.076,212.205 167.853,212.455 167.682,212.775C167.511,213.095 167.425,213.52 167.425,214.049C167.425,214.81 167.684,215.381 168.203,215.761C168.721,216.141 169.41,216.332 170.27,216.332C170.711,216.332 171.12,216.274 171.494,216.158C171.869,216.042 172.203,215.885 172.495,215.687C172.787,215.488 173.03,215.262 173.223,215.008C173.416,214.755 173.557,214.49 173.645,214.214L173.678,214.214L173.678,215.323C173.678,215.642 173.769,215.86 173.951,215.976C174.133,216.092 174.345,216.15 174.588,216.15L175.084,216.15L175.084,215.819C174.974,215.83 174.855,215.838 174.728,215.844C174.602,215.849 174.483,215.838 174.373,215.811C174.262,215.783 174.174,215.731 174.108,215.654C174.042,215.576 174.009,215.455 174.009,215.29L174.009,209.88C173.998,209.417 173.915,209.031 173.761,208.722C173.606,208.414 173.402,208.163 173.149,207.97C172.895,207.777 172.6,207.642 172.264,207.565C171.927,207.487 171.572,207.449 171.197,207.449C170.667,207.449 170.207,207.52 169.815,207.664C169.424,207.807 169.093,208.006 168.823,208.259C168.553,208.513 168.346,208.813 168.203,209.161C168.059,209.508 167.977,209.88 167.955,210.277ZM173.678,211.154L173.678,212.726C173.678,213.145 173.604,213.553 173.455,213.95C173.306,214.347 173.085,214.697 172.793,215C172.501,215.303 172.14,215.549 171.71,215.736C171.279,215.924 170.789,216.017 170.237,216.017C169.774,216.017 169.385,215.96 169.071,215.844C168.757,215.728 168.5,215.579 168.302,215.397C168.103,215.215 167.963,215.006 167.88,214.769C167.797,214.531 167.756,214.292 167.756,214.049C167.756,213.597 167.828,213.23 167.971,212.949C168.114,212.668 168.307,212.447 168.55,212.287C168.793,212.127 169.071,212.017 169.385,211.956C169.7,211.896 170.022,211.854 170.353,211.832C170.684,211.81 171.023,211.794 171.37,211.783C171.718,211.772 172.04,211.744 172.338,211.7C172.636,211.656 172.901,211.592 173.132,211.51C173.364,211.427 173.535,211.309 173.645,211.154L173.678,211.154Z" style="fill:rgb(235,251,245);fill-rule:nonzero;"/>
                <rect x="174.935" y="204.339" width="0.331" height="11.811" style="fill:rgb(235,251,245);fill-rule:nonzero;"/>
                <path d="M176.92,206.01L176.92,204.339L176.589,204.339L176.589,206.01L176.92,206.01ZM176.92,216.15L176.92,207.647L176.589,207.647L176.589,216.15L176.92,216.15Z" style="fill:rgb(235,251,245);fill-rule:nonzero;"/>
            </g>
        </g>
    </g>
    <g id="thali-dish">
        <g>
            <path d="M65.114,32.899C96.065,15.03 135.7,25.65 153.57,56.601C171.439,87.551 160.819,127.187 129.868,145.056C98.917,162.926 59.282,152.305 41.412,121.355C23.543,90.404 34.163,50.768 65.114,32.899ZM108.044,142.781C98.514,137.279 95.244,125.075 100.746,115.545C106.248,106.016 118.452,102.746 127.982,108.248C137.511,113.75 140.781,125.953 135.279,135.483C129.778,145.013 117.574,148.283 108.044,142.781ZM66.573,142.506C57.044,137.004 53.774,124.8 59.276,115.27C64.778,105.74 76.981,102.47 86.511,107.972C96.041,113.474 99.311,125.678 93.809,135.208C88.307,144.737 76.103,148.007 66.573,142.506ZM145.292,100.181C150.606,100.181 154.921,104.496 154.921,109.81C154.921,115.124 150.606,119.439 145.292,119.439C139.977,119.439 135.663,115.124 135.663,109.81C135.663,104.496 139.977,100.181 145.292,100.181ZM45.633,106.748C36.104,101.246 32.834,89.042 38.336,79.512C43.838,69.983 56.041,66.713 65.571,72.215C75.101,77.717 78.371,89.92 72.869,99.45C67.367,108.98 55.163,112.25 45.633,106.748ZM149.607,80.073C154.921,80.073 159.236,84.387 159.236,89.702C159.236,95.016 154.921,99.331 149.607,99.331C144.293,99.331 139.978,95.016 139.978,89.702C139.978,84.387 144.293,80.073 149.607,80.073ZM147.908,53.009C149.072,54.42 149.771,56.229 149.771,58.2C149.771,62.709 146.11,66.37 141.601,66.37C141.601,66.37 53.446,66.37 53.446,66.37C48.937,66.37 45.277,62.709 45.277,58.2C45.277,56.546 45.769,55.007 46.615,53.72L46.573,53.72C57.761,37.601 76.402,27.039 97.491,27.039C118.268,27.039 136.669,37.291 147.908,53.009Z" style="fill:rgb(235,251,245);"/>
        </g>
    </g>
</svg>
