<?xml version="1.0" standalone="no"?>
<!DOCTYPE svg PUBLIC "-//W3C//DTD SVG 1.1//EN" "http://www.w3.org/Graphics/SVG/1.1/DTD/svg11.dtd">
<svg width="100%" height="100%" viewBox="0 0 16 16" version="1.1" xmlns="http://www.w3.org/2000/svg" xmlns:xlink="http://www.w3.org/1999/xlink" xml:space="preserve" style="fill-rule:evenodd;clip-rule:evenodd;stroke-linejoin:round;stroke-miterlimit:1.41421;">
    <g transform="matrix(0.0529801,-4.31408e-32,-9.86076e-32,0.0879121,0,0)">
        <g id="Layer2">
            <rect x="0" y="0" width="302" height="182" style="fill:rgb(202,0,70);"/>
        </g>
    </g>
    <g transform="matrix(0.1081,6.94318e-31,6.96978e-31,0.1081,-2.53875,-1.61847)">
        <g id="Layer1">
            <g>
                <path d="M65.114,32.899C96.065,15.03 135.7,25.65 153.57,56.601C171.439,87.551 160.819,127.187 129.868,145.056C98.917,162.926 59.282,152.305 41.412,121.355C23.543,90.404 34.163,50.768 65.114,32.899ZM108.044,142.781C98.514,137.279 95.244,125.075 100.746,115.545C106.248,106.016 118.452,102.746 127.982,108.248C137.511,113.75 140.781,125.953 135.279,135.483C129.778,145.013 117.574,148.283 108.044,142.781ZM66.573,142.506C57.044,137.004 53.774,124.8 59.276,115.27C64.778,105.74 76.981,102.47 86.511,107.972C96.041,113.474 99.311,125.678 93.809,135.208C88.307,144.737 76.103,148.007 66.573,142.506ZM145.292,100.181C150.606,100.181 154.921,104.496 154.921,109.81C154.921,115.124 150.606,119.439 145.292,119.439C139.977,119.439 135.663,115.124 135.663,109.81C135.663,104.496 139.977,100.181 145.292,100.181ZM45.633,106.748C36.104,101.246 32.834,89.042 38.336,79.512C43.838,69.983 56.041,66.713 65.571,72.215C75.101,77.717 78.371,89.92 72.869,99.45C67.367,108.98 55.163,112.25 45.633,106.748ZM149.607,80.073C154.921,80.073 159.236,84.387 159.236,89.702C159.236,95.016 154.921,99.331 149.607,99.331C144.293,99.331 139.978,95.016 139.978,89.702C139.978,84.387 144.293,80.073 149.607,80.073ZM147.908,53.009C149.072,54.42 149.771,56.229 149.771,58.2C149.771,62.709 146.11,66.37 141.601,66.37C141.601,66.37 53.446,66.37 53.446,66.37C48.937,66.37 45.277,62.709 45.277,58.2C45.277,56.546 45.769,55.007 46.615,53.72L46.573,53.72C57.761,37.601 76.402,27.039 97.491,27.039C118.268,27.039 136.669,37.291 147.908,53.009Z" style="fill:rgb(236,251,246);stroke-width:4.63px;stroke:rgb(236,251,246);"/>
            </g>
        </g>
    </g>
</svg>
