<?xml version="1.0" standalone="no"?>
<!DOCTYPE svg PUBLIC "-//W3C//DTD SVG 1.1//EN" "http://www.w3.org/Graphics/SVG/1.1/DTD/svg11.dtd">
<svg width="100%" height="100%" viewBox="0 0 1024 1024" version="1.1" xmlns="http://www.w3.org/2000/svg" xmlns:xlink="http://www.w3.org/1999/xlink" xml:space="preserve" style="fill-rule:evenodd;clip-rule:evenodd;stroke-linejoin:round;stroke-miterlimit:1.41421;">
    <g id="bg" transform="matrix(3.39073,0,0,5.62637,0,0)">
        <rect x="0" y="0" width="302" height="182" style="fill:rgb(202,0,70);"/>
    </g>
    <g id="mono">
        <path d="M288.394,124.702C502.149,1.291 775.886,74.638 899.298,288.394C1022.71,502.149 949.362,775.886 735.606,899.298C521.851,1022.71 248.114,949.362 124.702,735.606C1.291,521.851 74.638,248.114 288.394,124.702ZM584.883,883.581C519.068,845.582 496.485,761.299 534.483,695.484C572.481,629.669 656.765,607.085 722.58,645.084C788.395,683.082 810.978,767.365 772.98,833.18C734.982,898.995 650.698,921.579 584.883,883.581ZM298.473,881.68C232.658,843.682 210.074,759.399 248.073,693.584C286.071,627.769 370.354,605.185 436.169,643.183C501.984,681.182 524.568,765.465 486.569,831.28C448.571,897.095 364.288,919.679 298.473,881.68ZM842.128,589.373C878.83,589.373 908.628,619.171 908.628,655.873C908.628,692.576 878.83,722.373 842.128,722.373C805.425,722.373 775.628,692.576 775.628,655.873C775.628,619.171 805.425,589.373 842.128,589.373ZM153.854,634.726C88.039,596.728 65.455,512.444 103.454,446.629C141.452,380.814 225.735,358.231 291.55,396.229C357.365,434.227 379.949,518.511 341.951,584.326C303.952,650.141 219.669,672.724 153.854,634.726ZM871.93,450.5C908.632,450.5 938.43,480.298 938.43,517C938.43,553.702 908.632,583.5 871.93,583.5C835.227,583.5 805.43,553.702 805.43,517C805.43,480.298 835.227,450.5 871.93,450.5ZM860.194,263.584C868.233,273.335 873.063,285.827 873.063,299.439C873.063,330.579 847.781,355.86 816.641,355.86C816.641,355.86 207.812,355.86 207.812,355.86C176.672,355.86 151.39,330.579 151.39,299.439C151.39,288.018 154.79,277.386 160.633,268.5L160.342,268.5C237.608,157.178 366.352,84.23 512,84.23C655.493,84.23 782.578,155.036 860.194,263.584Z" style="fill:rgb(235,251,245);"/>
    </g>
    <g id="logos">
        <g transform="matrix(1.16601,1.16601,-1.16601,1.16601,854.852,404.043)">
            <g>
                <g>
                    <path d="M73.729,56.249C73.729,57.25 73.343,58.584 71.635,58.584L68.622,58.584C66.865,58.584 66.546,57.123 66.546,56.198L66.546,53.412C66.546,52.257 67.172,51.397 68.813,51.397L71.498,51.397C73.19,51.397 73.729,52.428 73.729,53.429L73.729,56.249Z" style="fill:rgb(235,251,245);fill-rule:nonzero;"/>
                    <path d="M73.775,38.07L73.775,41.18C73.779,41.18 73.853,41.867 73.335,42.445C72.874,42.965 72.118,43.229 71.081,43.229C62.628,43.229 57.577,49.535 57.577,56.02C57.595,56.194 57.669,57.166 57.058,57.869C56.645,58.346 56.026,58.584 55.224,58.584L52.229,58.584C52.197,58.584 50.111,58.486 50.111,56.041C50.111,45.257 58.555,35.701 71.072,35.765C71.072,35.765 73.904,35.352 73.775,38.07Z" style="fill:rgb(235,251,245);fill-rule:nonzero;"/>
                    <path d="M33.453,56.356C33.453,37.069 47.647,19.358 71.458,19.358C71.458,19.358 73.711,19.226 73.711,21.437L73.711,25.297C73.711,25.297 73.974,26.972 71.458,27.069C52.222,27.069 41.166,41.321 41.166,56.356C41.166,56.356 41.53,58.567 38.976,58.567L35.685,58.567C35.685,58.567 33.453,58.908 33.453,56.356Z" style="fill:rgb(235,251,245);fill-rule:nonzero;"/>
                </g>
            </g>
        </g>
        <g transform="matrix(0.207614,1.60648e-14,-1.60904e-14,0.207614,243.99,358.164)">
            <path d="M2904.75,1582.58L2953.3,1534.02L2904.79,1485.51L2904.75,1582.58ZM2852.91,1433.97L2747.96,1328.71L2778.37,1298.3L2862.01,1381.94L2862.01,1181.46L3014.07,1333.53L2913.64,1433.97L3014.07,1534.37L2862.01,1686.45L2862.01,1485.98L2778.37,1569.62L2747.96,1539.21L2852.91,1433.97ZM2904.75,1285.35L2953.3,1333.9L2904.79,1382.42L2904.75,1285.35Z" style="fill:rgb(235,251,245);"/>
        </g>
        <g transform="matrix(0.734752,0,0,0.734752,559.683,672.658)">
            <path d="M232.727,244.364L191.273,244.364L194.182,209.455L173.818,209.455L170.909,244.364L85.091,244.364L82.182,209.455L61.818,209.455L64.727,244.364L23.273,244.364L0,93.091L58.182,0L197.818,0L256,93.091L232.727,244.364ZM186.182,46.545L148.779,46.545L151.273,64L104.727,64L107.221,46.545L69.818,46.545L46.545,93.091L58.182,186.182L197.818,186.182L209.455,93.091L186.182,46.545ZM165.818,155.287C162.605,155.287 160,145.597 160,133.644C160,121.69 162.605,112 165.818,112C169.031,112 171.636,121.69 171.636,133.644C171.636,145.597 169.031,155.287 165.818,155.287ZM92.364,157.091C89.151,157.091 86.545,147.401 86.545,135.447C86.545,123.494 89.151,113.804 92.364,113.804C95.577,113.804 98.182,123.494 98.182,135.447C98.182,147.401 95.577,157.091 92.364,157.091Z" style="fill:rgb(235,251,245);fill-rule:nonzero;"/>
        </g>
        <g transform="matrix(0.605118,0,0,0.605118,289.913,662.685)">
            <path d="M18.752,0L0,91.459L53.782,142.202L18.839,204.491L89.94,329.677L167.725,329.677L239.131,204.491L203.886,142.202L255.845,91.459L238.739,0L165.599,97.409L92.372,97.409L18.752,0Z" style="fill:rgb(235,251,245);fill-rule:nonzero;"/>
        </g>
        <g transform="matrix(1.44742,0,0,1.44742,128.019,404.549)">
            <path d="M109.055,86.491C109.055,74.814 101.163,71.703 84.547,69.507C67.759,67.286 66.053,66.14 66.053,62.208C66.053,58.963 67.498,54.63 79.933,54.63C91.04,54.63 95.133,57.023 96.816,64.511C96.964,65.216 97.607,65.732 98.335,65.732L105.351,65.732C105.787,65.732 106.2,65.544 106.495,65.233C106.791,64.902 106.949,64.475 106.908,64.031C105.822,51.133 97.252,45.123 79.933,45.123C64.517,45.123 55.324,51.627 55.324,62.536C55.324,74.37 64.472,77.638 79.265,79.101C96.964,80.833 98.338,83.42 98.338,86.904C98.338,92.947 93.49,95.524 82.101,95.524C67.794,95.524 64.648,91.931 63.593,84.815C63.472,84.052 62.821,83.492 62.04,83.492L55.05,83.492C54.184,83.492 53.488,84.183 53.488,85.049C53.488,94.157 58.444,105.017 82.101,105.017C99.232,105.017 109.055,98.27 109.055,86.491ZM65.402,148C63.426,148 61.461,147.484 59.732,146.483L41.681,135.802C38.988,134.294 40.303,133.761 41.192,133.451C44.788,132.204 45.515,131.916 49.353,129.739C49.753,129.515 50.282,129.601 50.695,129.841L64.562,138.076C65.065,138.354 65.774,138.354 66.237,138.076L120.3,106.872C120.802,106.584 121.125,106.004 121.125,105.408L121.125,43.017C121.125,42.406 120.802,41.837 120.287,41.526L66.246,10.35C65.747,10.058 65.084,10.058 64.581,10.35L10.553,41.536C10.028,41.837 9.696,42.425 9.696,43.017L9.696,105.408C9.696,106.004 10.028,106.57 10.549,106.852L25.359,115.41C33.394,119.427 38.314,114.696 38.314,109.941L38.314,48.341C38.314,47.47 39.015,46.783 39.886,46.783L46.74,46.783C47.598,46.783 48.307,47.47 48.307,48.341L48.307,109.941C48.307,120.667 42.466,126.817 32.299,126.817C29.175,126.817 26.715,126.817 19.846,123.432L5.669,115.27C2.168,113.246 0,109.46 0,105.408L0,43.017C0,38.963 2.168,35.179 5.669,33.163L59.732,1.923C63.153,-0.011 67.701,-0.011 71.095,1.923L125.152,33.163C128.655,35.188 130.83,38.963 130.83,43.017L130.83,105.408C130.83,109.46 128.655,113.232 125.152,115.27L71.095,146.483C69.367,147.484 67.405,148 65.402,148Z" style="fill:rgb(235,251,245);fill-rule:nonzero;"/>
        </g>
        <g transform="matrix(2.09273,0,0,2.09273,397.235,253.241)">
            <path d="M-17.66,16.219L-17.66,-18.989L-28.964,-18.989L-28.964,15.715C-28.964,16.627 -29,17.575 -29.072,18.559C-29.144,19.543 -29.36,20.455 -29.72,21.295C-30.08,22.135 -30.668,22.819 -31.484,23.347C-32.3,23.875 -33.452,24.139 -34.94,24.139C-36.284,24.139 -37.376,23.923 -38.216,23.491C-39.056,23.059 -39.716,22.471 -40.196,21.727C-40.676,20.983 -41.012,20.083 -41.204,19.027C-41.396,17.971 -41.492,16.819 -41.492,15.571L-41.492,13.267L-51.716,13.267L-51.716,17.731C-51.716,20.563 -51.236,22.975 -50.276,24.967C-49.316,26.959 -48.044,28.591 -46.46,29.863C-44.876,31.135 -43.076,32.071 -41.06,32.671C-39.044,33.271 -36.956,33.571 -34.796,33.571C-30.956,33.571 -27.908,32.983 -25.652,31.807C-23.396,30.631 -21.668,29.167 -20.468,27.415C-19.268,25.663 -18.5,23.779 -18.164,21.763C-17.828,19.747 -17.66,17.899 -17.66,16.219Z" style="fill:rgb(235,251,245);fill-rule:nonzero;"/>
            <path d="M-0.164,5.491L-18.092,32.419L-5.42,32.419L6.028,14.635L17.26,32.419L30.724,32.419L12.796,5.563L29.284,-18.989L16.9,-18.989L6.46,-2.573L-3.62,-18.989L-16.724,-18.989L-0.164,5.491Z" style="fill:rgb(235,251,245);fill-rule:nonzero;"/>
            <path d="M54.484,8.299L64.492,8.299C64.348,5.899 63.772,3.823 62.764,2.071C61.756,0.319 60.448,-1.145 58.84,-2.321C57.232,-3.497 55.408,-4.373 53.368,-4.949C51.328,-5.525 49.204,-5.813 46.996,-5.813C43.972,-5.813 41.284,-5.309 38.932,-4.301C36.58,-3.293 34.588,-1.889 32.956,-0.089C31.324,1.711 30.088,3.847 29.248,6.319C28.408,8.791 27.988,11.467 27.988,14.347C27.988,17.131 28.444,19.687 29.356,22.015C30.268,24.343 31.54,26.347 33.172,28.027C34.804,29.707 36.784,31.015 39.112,31.951C41.44,32.887 43.996,33.355 46.78,33.355C51.724,33.355 55.78,32.059 58.948,29.467C62.116,26.875 64.036,23.107 64.708,18.163L54.844,18.163C54.508,20.467 53.68,22.303 52.36,23.671C51.04,25.039 49.156,25.723 46.708,25.723C45.124,25.723 43.78,25.363 42.676,24.643C41.572,23.923 40.696,22.999 40.048,21.871C39.4,20.743 38.932,19.483 38.644,18.091C38.356,16.699 38.212,15.331 38.212,13.987C38.212,12.595 38.356,11.191 38.644,9.775C38.932,8.359 39.424,7.063 40.12,5.887C40.816,4.711 41.716,3.751 42.82,3.007C43.924,2.263 45.292,1.891 46.924,1.891C51.292,1.891 53.812,4.027 54.484,8.299Z" style="fill:rgb(235,251,245);fill-rule:nonzero;"/>
            <path d="M74.5,13.843C74.5,12.355 74.644,10.891 74.932,9.451C75.22,8.011 75.712,6.739 76.408,5.635C77.104,4.531 78.028,3.631 79.18,2.935C80.332,2.239 81.772,1.891 83.5,1.891C85.228,1.891 86.68,2.239 87.856,2.935C89.032,3.631 89.968,4.531 90.664,5.635C91.36,6.739 91.852,8.011 92.14,9.451C92.428,10.891 92.572,12.355 92.572,13.843C92.572,15.331 92.428,16.783 92.14,18.199C91.852,19.615 91.36,20.887 90.664,22.015C89.968,23.143 89.032,24.043 87.856,24.715C86.68,25.387 85.228,25.723 83.5,25.723C81.772,25.723 80.332,25.387 79.18,24.715C78.028,24.043 77.104,23.143 76.408,22.015C75.712,20.887 75.22,19.615 74.932,18.199C74.644,16.783 74.5,15.331 74.5,13.843ZM64.276,13.843C64.276,16.819 64.732,19.507 65.644,21.907C66.556,24.307 67.852,26.359 69.532,28.063C71.212,29.767 73.228,31.075 75.58,31.987C77.932,32.899 80.572,33.355 83.5,33.355C86.428,33.355 89.08,32.899 91.456,31.987C93.832,31.075 95.86,29.767 97.54,28.063C99.22,26.359 100.516,24.307 101.428,21.907C102.34,19.507 102.796,16.819 102.796,13.843C102.796,10.867 102.34,8.167 101.428,5.743C100.516,3.319 99.22,1.255 97.54,-0.449C95.86,-2.153 93.832,-3.473 91.456,-4.409C89.08,-5.345 86.428,-5.813 83.5,-5.813C80.572,-5.813 77.932,-5.345 75.58,-4.409C73.228,-3.473 71.212,-2.153 69.532,-0.449C67.852,1.255 66.556,3.319 65.644,5.743C64.732,8.167 64.276,10.867 64.276,13.843Z" style="fill:rgb(235,251,245);fill-rule:nonzero;"/>
            <path d="M104.38,-4.805L104.38,32.419L114.604,32.419L114.604,15.643C114.604,13.963 114.772,12.403 115.108,10.963C115.444,9.523 116.008,8.263 116.8,7.183C117.592,6.103 118.636,5.251 119.932,4.627C121.228,4.003 122.812,3.691 124.684,3.691C125.308,3.691 125.956,3.727 126.628,3.799C127.3,3.871 127.876,3.955 128.356,4.051L128.356,-5.453C127.54,-5.693 126.796,-5.813 126.124,-5.813C124.828,-5.813 123.58,-5.621 122.38,-5.237C121.18,-4.853 120.052,-4.313 118.996,-3.617C117.94,-2.921 117.004,-2.081 116.188,-1.097C115.372,-0.113 114.724,0.955 114.244,2.107L114.1,2.107L114.1,-4.805L104.38,-4.805Z" style="fill:rgb(235,251,245);fill-rule:nonzero;"/>
            <path d="M151.108,9.811L134.476,9.811C134.524,9.091 134.68,8.275 134.944,7.363C135.208,6.451 135.664,5.587 136.312,4.771C136.96,3.955 137.824,3.271 138.904,2.719C139.984,2.167 141.34,1.891 142.972,1.891C145.468,1.891 147.328,2.563 148.552,3.907C149.776,5.251 150.628,7.219 151.108,9.811ZM134.476,16.291L161.332,16.291C161.524,13.411 161.284,10.651 160.612,8.011C159.94,5.371 158.848,3.019 157.336,0.955C155.824,-1.109 153.892,-2.753 151.54,-3.977C149.188,-5.201 146.428,-5.813 143.26,-5.813C140.428,-5.813 137.848,-5.309 135.52,-4.301C133.192,-3.293 131.188,-1.913 129.508,-0.161C127.828,1.591 126.532,3.667 125.62,6.067C124.708,8.467 124.252,11.059 124.252,13.843C124.252,16.723 124.696,19.363 125.584,21.763C126.472,24.163 127.732,26.227 129.364,27.955C130.996,29.683 132.988,31.015 135.34,31.951C137.692,32.887 140.332,33.355 143.26,33.355C147.484,33.355 151.084,32.395 154.06,30.475C157.036,28.555 159.244,25.363 160.684,20.899L151.684,20.899C151.348,22.051 150.436,23.143 148.948,24.175C147.46,25.207 145.684,25.723 143.62,25.723C140.74,25.723 138.532,24.979 136.996,23.491C135.46,22.003 134.62,19.603 134.476,16.291Z" style="fill:rgb(235,251,245);fill-rule:nonzero;"/>
        </g>
    </g>
</svg>
